<?xml version="1.0" encoding="UTF-8" standalone="no"?>
<svg width="53px" height="53px" viewBox="0 0 53 53" version="1.1" xmlns="http://www.w3.org/2000/svg" xmlns:xlink="http://www.w3.org/1999/xlink" xmlns:sketch="http://www.bohemiancoding.com/sketch/ns">
    <!-- Generator: Sketch 3.4.2 (15857) - http://www.bohemiancoding.com/sketch -->
    <title>Cal</title>
    <desc>Created with Sketch.</desc>
    <defs></defs>
    <g id="Page-1" stroke="none" stroke-width="1" fill="none" fill-rule="evenodd" sketch:type="MSPage">
        <g id="Holiday" sketch:type="MSArtboardGroup" transform="translate(-42.000000, -65.000000)" fill="#427FC2">
            <g id="Cal" sketch:type="MSLayerGroup" transform="translate(42.000000, 65.000000)">
                <path d="M0.00181566069,18.111522 C0.00181566069,17.6564114 0.373680261,17.2874797 0.828546493,17.2874797 C1.28341272,17.2874797 1.65527732,17.658135 1.65527732,18.111522 L1.65527732,47.9180325 C1.65527732,48.8609154 2.04443393,49.7194293 2.66711909,50.3418992 C3.29144698,50.9642829 4.15276183,51.352174 5.0988075,51.352174 L47.816721,51.352174 C48.7626803,51.352174 49.6239951,50.9642829 50.2484095,50.3418992 C50.8729103,49.7194293 51.2601648,48.8609154 51.2601648,47.9180325 L51.2601648,18.111522 C51.2601648,17.6564114 51.6320294,17.2874797 52.0869821,17.2874797 C52.5418483,17.2874797 52.9137129,17.658135 52.9137129,18.111522 L52.9137129,47.9180325 C52.9137129,49.3161984 52.3394454,50.5882846 51.4176085,51.5071236 C50.493956,52.4278585 49.2193622,53 47.8168075,53 L5.0988075,53 C3.69616639,53 2.41975693,52.4276862 1.49792007,51.5071236 C0.575996737,50.5883707 0.00181566069,49.3161122 0.00181566069,47.9179463 L0.00181566069,18.111522 Z" id="Fill-1" sketch:type="MSShapeGroup"></path>
                <path d="M7.23462969,19.4165371 L16.8249494,19.4165371 L16.8456998,19.4165371 C17.3022953,19.4165371 17.6724307,19.7871924 17.6724307,20.2405793 L17.6724307,30.8633306 L17.6724307,30.8840135 C17.6724307,31.3391241 17.3005661,31.7080558 16.8456998,31.7080558 L7.25555302,31.7080558 L7.23480261,31.7080558 C6.77820718,31.7080558 6.40807178,31.3374005 6.40807178,30.8840135 L6.40807178,20.2611761 L6.40807178,20.2404932 C6.40634258,19.7871062 6.77820718,19.4165371 7.23462969,19.4165371 L7.23462969,19.4165371 Z M16.018969,21.0646216 L8.06136052,21.0646216 L8.06136052,30.059885 L16.018969,30.059885 L16.018969,21.0646216 Z" id="Fill-3" sketch:type="MSShapeGroup"></path>
                <path d="M36.0679266,19.4165371 L45.6582463,19.4165371 L45.6807259,19.4165371 C46.1373214,19.4165371 46.5074568,19.7871924 46.5074568,20.2405793 L46.5074568,30.8633306 L46.5074568,30.8840135 C46.5074568,31.3391241 46.1355922,31.7080558 45.6807259,31.7080558 L36.0903197,31.7080558 L36.0695693,31.7080558 C35.6130604,31.7080558 35.2411093,31.3374005 35.2411093,30.8840135 L35.2411093,20.2611761 L35.2411093,20.2404932 C35.2411093,19.7871062 35.6129739,19.4165371 36.0679266,19.4165371 L36.0679266,19.4165371 Z M44.8539086,21.0646216 L36.8963866,21.0646216 L36.8963866,30.059885 L44.8539086,30.059885 L44.8539086,21.0646216 Z" id="Fill-5" sketch:type="MSShapeGroup"></path>
                <path d="M21.6504568,19.4165371 L31.2407765,19.4165371 L31.2632561,19.4165371 C31.7198515,19.4165371 32.0899869,19.7871924 32.0899869,20.2405793 L32.0899869,30.8633306 L32.0899869,30.8840135 C32.0899869,31.3391241 31.7180359,31.7080558 31.2632561,31.7080558 L21.6728499,31.7080558 L21.6503703,31.7080558 C21.1937749,31.7080558 20.8236395,31.3374005 20.8236395,30.8840135 L20.8236395,20.2611761 L20.8236395,20.2404932 C20.8237259,19.7871062 21.1955041,19.4165371 21.6504568,19.4165371 L21.6504568,19.4165371 Z M30.4347096,21.0646216 L22.4771011,21.0646216 L22.4771011,30.059885 L30.4347096,30.059885 L30.4347096,21.0646216 Z" id="Fill-7" sketch:type="MSShapeGroup"></path>
                <path d="M7.23462969,34.3196976 L16.8249494,34.3196976 L16.8456998,34.3196976 C17.3022953,34.3196976 17.6724307,34.690439 17.6724307,35.1437398 L17.6724307,45.7665772 L17.6724307,45.7890699 C17.6724307,46.2440943 17.3005661,46.6131122 16.8456998,46.6131122 L7.25555302,46.6131122 L7.23480261,46.6131122 C6.77820718,46.6131122 6.40807178,46.2424569 6.40807178,45.7890699 L6.40807178,35.1662325 L6.40807178,35.1456358 C6.40634258,34.690439 6.77820718,34.3196976 7.23462969,34.3196976 L7.23462969,34.3196976 Z M16.018969,35.9695919 L8.06136052,35.9695919 L8.06136052,44.9649415 L16.018969,44.9649415 L16.018969,35.9695919 Z" id="Fill-9" sketch:type="MSShapeGroup"></path>
                <path d="M36.0679266,34.3196976 L45.6582463,34.3196976 L45.6807259,34.3196976 C46.1373214,34.3196976 46.5074568,34.690439 46.5074568,35.1437398 L46.5074568,45.7665772 L46.5074568,45.7890699 C46.5074568,46.2440943 46.1355922,46.6131122 45.6807259,46.6131122 L36.0903197,46.6131122 L36.0695693,46.6131122 C35.6130604,46.6131122 35.2411093,46.2424569 35.2411093,45.7890699 L35.2411093,35.1662325 L35.2411093,35.1456358 C35.2411093,34.690439 35.6129739,34.3196976 36.0679266,34.3196976 L36.0679266,34.3196976 Z M44.8539086,35.9695919 L36.8963866,35.9695919 L36.8963866,44.9649415 L44.8539086,44.9649415 L44.8539086,35.9695919 Z" id="Fill-11" sketch:type="MSShapeGroup"></path>
                <path d="M21.6504568,34.3196976 L31.2407765,34.3196976 L31.2632561,34.3196976 C31.7198515,34.3196976 32.0899869,34.690439 32.0899869,35.1437398 L32.0899869,45.7665772 L32.0899869,45.7890699 C32.0899869,46.2440943 31.7180359,46.6131122 31.2632561,46.6131122 L21.6728499,46.6131122 L21.6503703,46.6131122 C21.1937749,46.6131122 20.8236395,46.2424569 20.8236395,45.7890699 L20.8236395,35.1662325 L20.8236395,35.1456358 C20.8237259,34.690439 21.1955041,34.3196976 21.6504568,34.3196976 L21.6504568,34.3196976 Z M30.4347096,35.9695919 L22.4771011,35.9695919 L22.4771011,44.9649415 L30.4347096,44.9649415 L30.4347096,35.9695919 Z" id="Fill-13" sketch:type="MSShapeGroup"></path>
                <path d="M39.6860196,9.75742927 C39.6860196,10.2125398 39.314155,10.5814715 38.8592887,10.5814715 C38.4026933,10.5814715 38.0324715,10.2108163 38.0324715,9.75742927 L38.0324715,0.867217886 C38.0308287,0.413830894 38.4026933,0.0431756098 38.8574731,0.0431756098 C39.3140685,0.0431756098 39.6842904,0.413830894 39.6842904,0.867217886 L39.6842904,9.75742927 L39.6860196,9.75742927 Z" id="Fill-15" sketch:type="MSShapeGroup"></path>
                <path d="M14.8827113,9.75742927 C14.8827113,10.2125398 14.5108467,10.5814715 14.0559804,10.5814715 C13.599385,10.5814715 13.2292496,10.2108163 13.2292496,9.75742927 L13.2292496,0.867217886 C13.2276069,0.413830894 13.5994715,0.0431756098 14.0542512,0.0431756098 C14.5108467,0.0431756098 14.8827113,0.413830894 14.8827113,0.867217886 L14.8827113,9.75742927 Z" id="Fill-17" sketch:type="MSShapeGroup"></path>
                <path d="M38.8575595,4.16848016 L17.3593589,4.16848016 C16.9027635,4.16848016 16.5326281,4.53741187 16.5326281,4.99252244 C16.5326281,5.44763301 16.9044927,5.81656472 17.3593589,5.81656472 L38.8574731,5.81656472 C39.3140685,5.81656472 39.6842904,5.44590943 39.6842904,4.99252244 C39.6860196,4.53741187 39.314155,4.16848016 38.8575595,4.16848016 L38.8575595,4.16848016 Z M14.0542512,4.16848016 C14.5108467,4.16848016 14.8809821,4.53741187 14.8809821,4.99252244 C14.8809821,5.44763301 14.5091175,5.81656472 14.0542512,5.81656472 L5.0988075,5.81656472 C4.15967863,5.81656472 3.29836378,6.20617935 2.67057749,6.83028667 L2.63080587,6.86992894 C2.02895759,7.48714195 1.65363458,8.33178098 1.65363458,9.24889642 L1.65363458,13.0294769 L51.2586085,13.0294769 L51.2586085,9.24889642 C51.2586085,8.30937447 50.8677227,7.45258423 50.2433948,6.83028667 L50.2036232,6.78892081 C49.5825808,6.18902976 48.7352724,5.81665089 47.8133491,5.81665089 L42.1593817,5.81665089 C41.7028728,5.81665089 41.3326509,5.44599561 41.3326509,4.99260862 C41.3326509,4.53749805 41.7045155,4.16856634 42.1593817,4.16856634 L47.8133491,4.16856634 C49.1763051,4.16856634 50.4336933,4.72192081 51.3554437,5.6131826 L51.4125073,5.66488992 C52.3343442,6.58545252 52.9121566,7.8542639 52.9121566,9.24889642 L52.9121566,13.8310265 L52.9121566,13.853433 C52.9121566,14.3085436 52.5402055,14.6774753 52.0853393,14.6774753 L0.84921044,14.6774753 L0.826730832,14.6774753 C0.3718646,14.6791989 0,14.3085436 0,13.853433 L0,9.24889642 C0,7.88873545 0.555159869,6.63888341 1.44932953,5.72004439 L1.50120555,5.66316634 C2.42650082,4.74088016 3.70126754,4.16684276 5.09872104,4.16684276 L14.0541648,4.16684276 L14.0542512,4.16848016 Z" id="Fill-19" sketch:type="MSShapeGroup"></path>
            </g>
        </g>
    </g>
</svg>