<?xml version="1.0" encoding="UTF-8" standalone="no"?>
<svg width="118px" height="129px" viewBox="0 0 118 129" version="1.1" xmlns="http://www.w3.org/2000/svg" xmlns:xlink="http://www.w3.org/1999/xlink" xmlns:sketch="http://www.bohemiancoding.com/sketch/ns">
    <!-- Generator: Sketch 3.4.1 (15681) - http://www.bohemiancoding.com/sketch -->
    <title>calendar184</title>
    <desc>Created with Sketch.</desc>
    <defs></defs>
    <g id="Templates" stroke="none" stroke-width="1" fill="none" fill-rule="evenodd" sketch:type="MSPage">
        <g id="Desktop-HD-HOME" sketch:type="MSArtboardGroup" transform="translate(-964.000000, -1968.000000)" fill="#427FC2">
            <g id="Main-article" sketch:type="MSLayerGroup" transform="translate(0.000000, 80.000000)">
                <g id="calendar184" transform="translate(964.000000, 1888.000000)" sketch:type="MSShapeGroup">
                    <path d="M0,40.3653846 C0,39.3317308 0.8256,38.5240385 1.8384,38.5240385 C2.8512,38.5240385 3.6768,39.3509615 3.6768,40.3653846 L3.6768,116.865385 C3.6768,118.966346 4.536,120.879808 5.9232,122.254808 C7.3104,123.644231 9.2256,124.504808 11.3232,124.504808 L106.1616,124.504808 C108.264,124.504808 110.1744,123.644231 111.5616,122.254808 C112.9488,120.879808 113.8128,118.966346 113.8128,116.865385 L113.8128,40.3653846 C113.8128,39.3317308 114.6384,38.5240385 115.6512,38.5240385 C116.664,38.5240385 117.4896,39.3509615 117.4896,40.3653846 L117.4896,116.865385 C117.4896,119.980769 116.2128,122.817308 114.1488,124.865385 C112.104,126.908654 109.2768,128.1875 106.1616,128.1875 L11.3232,128.1875 C8.2128,128.1875 5.3808,126.908654 3.3168,124.865385 C1.2768,122.817308 0,119.980769 0,116.865385 L0,40.3653846 Z" id="Fill-1"></path>
                    <path d="M88.104,21.7163462 C88.104,22.7307692 87.2832,23.5528846 86.2704,23.5528846 C85.2576,23.5528846 84.4512,22.7307692 84.4512,21.7163462 L84.4512,1.88461538 C84.432,0.870192308 85.2576,0.0432692308 86.2704,0.0432692308 C87.2832,0.0432692308 88.104,0.870192308 88.104,1.88461538 L88.104,21.7163462 Z" id="Fill-8"></path>
                    <path d="M33.0384,21.7163462 C33.0384,22.7307692 32.2128,23.5528846 31.2,23.5528846 C30.1872,23.5528846 29.3808,22.7307692 29.3808,21.7163462 L29.3808,1.88461538 C29.3616,0.870192308 30.1872,0.0432692308 31.2,0.0432692308 C32.2128,0.0432692308 33.0384,0.870192308 33.0384,1.88461538 L33.0384,21.7163462 Z" id="Fill-9"></path>
                    <path d="M31.2,9.24519231 C32.2128,9.24519231 33.0384,10.0721154 33.0384,11.0865385 C33.0384,12.1009615 32.2128,12.9230769 31.2,12.9230769 L11.3232,12.9230769 C9.2448,12.9230769 7.3296,13.7884615 5.9232,15.1778846 L5.8512,15.2740385 C4.5024,16.6442308 3.6768,18.5384615 3.6768,20.5865385 L3.6768,29.0192308 L113.8128,29.0192308 L113.8128,20.5865385 C113.8128,18.4855769 112.9296,16.5673077 111.5424,15.1778846 L111.4704,15.0865385 C110.0832,13.75 108.2064,12.9230769 106.1616,12.9230769 L93.6,12.9230769 C92.5872,12.9230769 91.7616,12.1009615 91.7616,11.0865385 C91.7616,10.0721154 92.5872,9.24519231 93.6,9.24519231 L106.1616,9.24519231 C109.1808,9.24519231 111.9744,10.4855769 114.0192,12.4759615 L114.1488,12.5865385 C116.1936,14.6346154 117.4704,17.4711538 117.4704,20.5865385 L117.4704,30.8605769 C117.4704,31.875 116.6448,32.7019231 115.6512,32.7019231 L1.8384,32.7019231 C0.8256,32.7019231 0,31.875 0,30.8605769 L0,20.5865385 C0,17.5432692 1.2384,14.7644231 3.2256,12.7019231 L3.336,12.5865385 C5.3808,10.5192308 8.2128,9.24519231 11.3232,9.24519231 L31.2,9.24519231 Z M86.2704,9.24519231 L38.5488,9.24519231 C37.536,9.24519231 36.7104,10.0721154 36.7104,11.0865385 C36.7104,12.1009615 37.536,12.9230769 38.5488,12.9230769 L86.2704,12.9230769 C87.2832,12.9230769 88.104,12.1009615 88.104,11.0865385 C88.104,10.0721154 87.2832,9.24519231 86.2704,9.24519231 L86.2704,9.24519231 Z" id="Fill-10"></path>
                    <path d="M33.8203125,52 L31.4375,52 L31.4375,40.578125 L37.984375,40.578125 L37.984375,42.5625 L33.8203125,42.5625 L33.8203125,45.5078125 L37.6953125,45.5078125 L37.6953125,47.484375 L33.8203125,47.484375 L33.8203125,52 Z M42.8112917,45.6484375 L43.5925417,45.6484375 C44.3581705,45.6484375 44.923269,45.5208346 45.2878542,45.265625 C45.6524393,45.0104154 45.8347292,44.6093777 45.8347292,44.0625 C45.8347292,43.5208306 45.6485331,43.1354178 45.2761354,42.90625 C44.9037377,42.6770822 44.3269206,42.5625 43.5456667,42.5625 L42.8112917,42.5625 L42.8112917,45.6484375 Z M42.8112917,47.6171875 L42.8112917,52 L40.3894167,52 L40.3894167,40.578125 L43.7175417,40.578125 C45.2696328,40.578125 46.4180588,40.8606743 47.1628542,41.4257812 C47.9076496,41.9908882 48.2800417,42.8489526 48.2800417,44 C48.2800417,44.6718784 48.0951477,45.2695286 47.7253542,45.7929688 C47.3555606,46.3164089 46.8321284,46.726561 46.1550417,47.0234375 C47.8738003,49.5911587 48.9935807,51.2499963 49.5144167,52 L46.8269167,52 L44.1003542,47.6171875 L42.8112917,47.6171875 Z M51.1225833,52 L51.1225833,40.578125 L53.5444583,40.578125 L53.5444583,52 L51.1225833,52 Z M66.0666875,46.1796875 C66.0666875,48.0599052 65.5315366,49.499995 64.4612187,50.5 C63.3909009,51.500005 61.8453434,52 59.8245,52 L56.590125,52 L56.590125,40.578125 L60.1760625,40.578125 C62.0406552,40.578125 63.4885573,41.0703076 64.5198125,42.0546875 C65.5510677,43.0390674 66.0666875,44.4140537 66.0666875,46.1796875 L66.0666875,46.1796875 Z M63.5510625,46.2421875 C63.5510625,43.7890502 62.46774,42.5625 60.3010625,42.5625 L59.012,42.5625 L59.012,50 L60.0510625,50 C62.3844075,50 63.5510625,48.7474084 63.5510625,46.2421875 L63.5510625,46.2421875 Z M75.2764167,52 L74.4482917,49.28125 L70.2842292,49.28125 L69.4561042,52 L66.8467292,52 L70.8779792,40.53125 L73.8389167,40.53125 L77.8857917,52 L75.2764167,52 Z M73.8701667,47.25 C73.1045378,44.786446 72.6735526,43.3932308 72.5771979,43.0703125 C72.4808433,42.7473942 72.4118335,42.4921884 72.3701667,42.3046875 C72.1982908,42.9713575 71.7061082,44.6197785 70.8936042,47.25 L73.8701667,47.25 Z M82.0877083,45.28125 L84.4705208,40.578125 L87.0798958,40.578125 L83.2908333,47.5546875 L83.2908333,52 L80.8845833,52 L80.8845833,47.6328125 L77.0955208,40.578125 L79.7205208,40.578125 L82.0877083,45.28125 Z" id="FRIDAY"></path>
                    <path d="M26.9140625,112.179688 C26.9140625,114.059905 26.3789116,115.499995 25.3085938,116.5 C24.2382759,117.500005 22.6927184,118 20.671875,118 L17.4375,118 L17.4375,106.578125 L21.0234375,106.578125 C22.8880302,106.578125 24.3359323,107.070308 25.3671875,108.054688 C26.3984427,109.039067 26.9140625,110.414054 26.9140625,112.179688 L26.9140625,112.179688 Z M24.3984375,112.242188 C24.3984375,109.78905 23.315115,108.5625 21.1484375,108.5625 L19.859375,108.5625 L19.859375,116 L20.8984375,116 C23.2317825,116 24.3984375,114.747408 24.3984375,112.242188 L24.3984375,112.242188 Z M36.0300417,118 L29.4519167,118 L29.4519167,106.578125 L36.0300417,106.578125 L36.0300417,108.5625 L31.8737917,108.5625 L31.8737917,111.070312 L35.7409792,111.070312 L35.7409792,113.054688 L31.8737917,113.054688 L31.8737917,116 L36.0300417,116 L36.0300417,118 Z M43.4350833,108.429688 C42.5236204,108.429688 41.8178983,108.772132 41.3178958,109.457031 C40.8178933,110.141931 40.5678958,111.096348 40.5678958,112.320312 C40.5678958,114.8672 41.5236154,116.140625 43.4350833,116.140625 C44.2371707,116.140625 45.2085151,115.940106 46.3491458,115.539062 L46.3491458,117.570312 C45.4116411,117.960939 44.3647766,118.15625 43.2085208,118.15625 C41.5470542,118.15625 40.2762336,117.652349 39.3960208,116.644531 C38.5158081,115.636714 38.0757083,114.190114 38.0757083,112.304688 C38.0757083,111.117182 38.291852,110.076827 38.7241458,109.183594 C39.1564397,108.29036 39.7775272,107.605471 40.5874271,107.128906 C41.397327,106.652341 42.3465362,106.414062 43.4350833,106.414062 C44.5444639,106.414062 45.6590361,106.682289 46.7788333,107.21875 L45.9975833,109.1875 C45.5704979,108.984374 45.1408147,108.807292 44.7085208,108.65625 C44.276227,108.505208 43.8517521,108.429688 43.4350833,108.429688 L43.4350833,108.429688 Z M55.527625,118 L48.9495,118 L48.9495,106.578125 L55.527625,106.578125 L55.527625,108.5625 L51.371375,108.5625 L51.371375,111.070312 L55.2385625,111.070312 L55.2385625,113.054688 L51.371375,113.054688 L51.371375,116 L55.527625,116 L55.527625,118 Z M62.9170417,118 L60.1670417,109.039062 L60.0967292,109.039062 C60.195688,110.861988 60.2451667,112.078122 60.2451667,112.6875 L60.2451667,118 L58.0811042,118 L58.0811042,106.578125 L61.3779792,106.578125 L64.0811042,115.3125 L64.1279792,115.3125 L66.9951667,106.578125 L70.2920417,106.578125 L70.2920417,118 L68.0342292,118 L68.0342292,112.59375 C68.0342292,112.33854 68.0381354,112.044273 68.0459479,111.710938 C68.0537604,111.377602 68.0889163,110.492195 68.1514167,109.054688 L68.0811042,109.054688 L65.1357917,118 L62.9170417,118 Z M73.3377083,106.578125 L76.8923958,106.578125 C78.5121956,106.578125 79.6879651,106.808591 80.4197396,107.269531 C81.1515141,107.730471 81.5173958,108.463537 81.5173958,109.46875 C81.5173958,110.151045 81.3572412,110.710935 81.0369271,111.148438 C80.716613,111.58594 80.290836,111.848958 79.7595833,111.9375 L79.7595833,112.015625 C80.4835453,112.177084 81.0056755,112.479164 81.3259896,112.921875 C81.6463037,113.364586 81.8064583,113.953121 81.8064583,114.6875 C81.8064583,115.729172 81.43016,116.541664 80.6775521,117.125 C79.9249441,117.708336 78.9028189,118 77.6111458,118 L73.3377083,118 L73.3377083,106.578125 Z M75.7595833,111.101562 L77.1658333,111.101562 C77.8220866,111.101562 78.2973423,111.000001 78.5916146,110.796875 C78.8858869,110.593749 79.0330208,110.257815 79.0330208,109.789062 C79.0330208,109.35156 78.8728662,109.037761 78.5525521,108.847656 C78.232238,108.657551 77.7257326,108.5625 77.0330208,108.5625 L75.7595833,108.5625 L75.7595833,111.101562 Z M75.7595833,113.023438 L75.7595833,116 L77.3377083,116 C78.0043783,116 78.4965609,115.872397 78.8142708,115.617188 C79.1319807,115.361978 79.2908333,114.971357 79.2908333,114.445312 C79.2908333,113.497391 78.6137568,113.023438 77.2595833,113.023438 L75.7595833,113.023438 Z M90.8365,118 L84.258375,118 L84.258375,106.578125 L90.8365,106.578125 L90.8365,108.5625 L86.68025,108.5625 L86.68025,111.070312 L90.5474375,111.070312 L90.5474375,113.054688 L86.68025,113.054688 L86.68025,116 L90.8365,116 L90.8365,118 Z M95.8118542,111.648438 L96.5931042,111.648438 C97.358733,111.648438 97.9238315,111.520835 98.2884167,111.265625 C98.6530018,111.010415 98.8352917,110.609378 98.8352917,110.0625 C98.8352917,109.520831 98.6490956,109.135418 98.2766979,108.90625 C97.9043002,108.677082 97.3274831,108.5625 96.5462292,108.5625 L95.8118542,108.5625 L95.8118542,111.648438 Z M95.8118542,113.617188 L95.8118542,118 L93.3899792,118 L93.3899792,106.578125 L96.7181042,106.578125 C98.2701952,106.578125 99.4186213,106.860674 100.163417,107.425781 C100.908212,107.990888 101.280604,108.848953 101.280604,110 C101.280604,110.671878 101.09571,111.269529 100.725917,111.792969 C100.356123,112.316409 99.8326909,112.726561 99.1556042,113.023438 C100.874363,115.591159 101.994143,117.249996 102.514979,118 L99.8274792,118 L97.1009167,113.617188 L95.8118542,113.617188 Z" id="DECEMBER"></path>
                    <path d="M55.1054688,98 L30.9794922,98 L30.9794922,95.6796875 L41.2363281,84.9746094 C44.119155,81.9863132 46.1406192,79.7011798 47.3007812,78.1191406 C48.4609433,76.5371015 49.3134738,75.0253978 49.8583984,73.5839844 C50.403323,72.1425709 50.6757812,70.6308673 50.6757812,69.0488281 C50.6757812,66.7460822 49.9199294,64.8740306 48.4082031,63.4326172 C46.8964768,61.9912037 44.9365355,61.2705078 42.5283203,61.2705078 C39.3115074,61.2705078 36.2353662,62.4394414 33.2998047,64.7773438 L31.8759766,62.9580078 C35.0927895,60.250963 38.6611132,58.8974609 42.5810547,58.8974609 C45.9384933,58.8974609 48.5795802,59.7939363 50.5043945,61.5869141 C52.4292088,63.3798918 53.3916016,65.8495936 53.3916016,68.9960938 C53.3916016,71.5449346 52.7456119,74.010242 51.4536133,76.3920898 C50.1616146,78.7739377 47.801775,81.7138497 44.3740234,85.2119141 L34.4863281,95.3632812 L34.4863281,95.46875 L55.1054688,95.46875 L55.1054688,98 Z M72.9824219,74.8232422 C77.0957237,74.8232422 80.3344608,75.8163963 82.6987305,77.8027344 C85.0630001,79.7890724 86.2451172,82.5224435 86.2451172,86.0029297 C86.2451172,89.9580276 85.0146607,93.0341687 82.5537109,95.2314453 C80.0927611,97.4287219 76.7002169,98.5273438 72.3759766,98.5273438 C70.4599514,98.5273438 68.6406336,98.3383808 66.9179688,97.9604492 C65.1953039,97.5825176 63.7539121,97.0419957 62.59375,96.3388672 L62.59375,93.6230469 C64.492197,94.5898486 66.1796801,95.2622051 67.65625,95.6401367 C69.1328199,96.0180683 70.7060463,96.2070312 72.3759766,96.2070312 C75.7509934,96.2070312 78.4579976,95.3149503 80.4970703,93.5307617 C82.536143,91.7465731 83.5556641,89.3339996 83.5556641,86.2929688 C83.5556641,83.42772 82.5625099,81.1777425 80.5761719,79.5429688 C78.5898338,77.908195 75.8916186,77.0908203 72.4814453,77.0908203 C70.1962776,77.0908203 67.8056765,77.4335903 65.3095703,78.1191406 L63.7275391,77.0908203 L65.2568359,59.4511719 L83.8193359,59.4511719 L83.8193359,61.9824219 L67.7353516,61.9824219 L66.5488281,75.5878906 C69.2910293,75.0781225 71.4355391,74.8232422 72.9824219,74.8232422 L72.9824219,74.8232422 Z" id="25"></path>
                </g>
            </g>
        </g>
    </g>
</svg>