<?xml version="1.0" encoding="UTF-8" standalone="no"?>
<!DOCTYPE svg  PUBLIC '-//W3C//DTD SVG 1.1 Basic//EN'  'http://www.w3.org/Graphics/SVG/1.1/DTD/svg11-basic.dtd'>
<svg xmlns="http://www.w3.org/2000/svg" baseProfile="basic" height="31" width="88" version="1.1" xmlns:xlink="http://www.w3.org/1999/xlink" viewBox="0 0 88 31">
 <g id="surface1">
  <path fill="#aab2ab" d="m2.3008 0.375l83.129 0.14844c1.16 0 2.199-0.17188 2.199 2.3321l-0.102 27.554h-87.324l0.00012-27.656c0-1.2345 0.1211-2.379 2.0977-2.379z"/>
  <path d="m86.352 0h-84.704c-0.90972 0-1.648 0.74219-1.648 1.6562v28.969c0 0.207 0.16797 0.375 0.37109 0.375h87.258c0.203 0 0.371-0.168 0.371-0.375v-28.969c0-0.91381-0.738-1.656-1.648-1.656zm-84.704 0.75h84.704c0.5 0 0.902 0.4062 0.902 0.9062v20.133h-60.738c-2.219 4.039-6.493 6.781-11.399 6.781-4.91 0-9.1834-2.738-11.402-6.781h-2.9689c-0.00001-8.434-0.00001-20.133-0.00001-20.133 0-0.4998 0.40231-0.906 0.90231-0.906z"/>
  <path fill="#fff" d="m54.125 24.172c0.234 0 0.445 0.019 0.637 0.058 0.191 0.043 0.351 0.11 0.488 0.204 0.137 0.093 0.242 0.218 0.316 0.375 0.075 0.152 0.114 0.343 0.114 0.574 0 0.246-0.055 0.449-0.168 0.613-0.11 0.164-0.274 0.301-0.492 0.406 0.3 0.086 0.523 0.239 0.671 0.453 0.149 0.219 0.223 0.481 0.223 0.786 0 0.246-0.047 0.461-0.144 0.64-0.094 0.18-0.223 0.328-0.383 0.442-0.164 0.113-0.348 0.199-0.555 0.254-0.207 0.054-0.418 0.082-0.637 0.082h-2.359v-4.887zm-0.137 1.976c0.192 0 0.348-0.046 0.473-0.136 0.121-0.094 0.184-0.239 0.184-0.446 0-0.113-0.02-0.207-0.063-0.277-0.039-0.074-0.094-0.133-0.164-0.172-0.066-0.043-0.145-0.07-0.234-0.086-0.086-0.015-0.18-0.023-0.274-0.023h-1.004v1.14zm0.063 2.075c0.105 0 0.207-0.012 0.301-0.032 0.097-0.019 0.179-0.054 0.253-0.101 0.071-0.051 0.129-0.113 0.172-0.195 0.043-0.083 0.067-0.188 0.067-0.317 0-0.25-0.071-0.43-0.211-0.535-0.141-0.109-0.328-0.16-0.559-0.16h-1.168v1.34z"/>
  <path fill="#fff" d="m56.102 24.172h1.199l1.137 1.93 1.128-1.93h1.192l-1.801 3.012v1.875h-1.07v-1.903z"/>
  <path fill="#fff" d="m25.121 14.473c0.004 5.554-4.473 10.062-9.996 10.066-5.5195 0.004-10-4.5-10.004-10.055 0.0001-0.004 0.0001-0.007 0.0001-0.011-0.0039-5.5589 4.4727-10.067 9.9919-10.071 5.524-0.0036 10.004 4.5003 10.008 10.059v0.012z"/>
  <path d="m23.25 6.2734c2.215 2.2344 3.324 4.9646 3.324 8.1996 0 3.23-1.09 5.933-3.269 8.109-2.313 2.289-5.043 3.434-8.2 3.434-3.113 0-5.8003-1.137-8.0542-3.407-2.2578-2.269-3.3828-4.984-3.3828-8.136 0-3.157 1.125-5.891 3.3828-8.1996 2.1953-2.2304 4.8832-3.3476 8.0542-3.3476 3.211 0 5.926 1.1172 8.145 3.3476zm-14.707 1.5039c-1.875 1.9024-2.8125 4.1367-2.8125 6.6957 0 2.562 0.9297 4.773 2.7812 6.64 1.8553 1.867 4.0663 2.801 6.6293 2.801 2.562 0 4.789-0.941 6.683-2.828 1.797-1.754 2.696-3.957 2.696-6.613 0-2.637-0.915-4.8714-2.739-6.7113-1.828-1.8398-4.039-2.7578-6.64-2.7578-2.602 0-4.801 0.9258-6.598 2.7734zm4.934 5.5707c-0.289-0.629-0.715-0.942-1.289-0.942-1.012 0-1.516 0.684-1.516 2.055 0 1.367 0.504 2.051 1.516 2.051 0.667 0 1.144-0.332 1.429-1l1.403 0.75c-0.668 1.195-1.668 1.793-3.004 1.793-1.032 0-1.86-0.317-2.4769-0.953-0.6211-0.637-0.9336-1.512-0.9336-2.629 0-1.102 0.3203-1.973 0.9609-2.618 0.6406-0.644 1.4376-0.968 2.3906-0.968 1.414 0 2.422 0.562 3.035 1.679zm6.589 0c-0.285-0.629-0.707-0.942-1.257-0.942-1.032 0-1.551 0.684-1.551 2.055 0 1.367 0.519 2.051 1.551 2.051 0.668 0 1.136-0.332 1.402-1l1.434 0.75c-0.668 1.195-1.668 1.793-3.004 1.793-1.028 0-1.852-0.317-2.469-0.953-0.621-0.637-0.93-1.512-0.93-2.629 0-1.102 0.313-1.973 0.942-2.618 0.628-0.644 1.429-0.968 2.402-0.968 1.41 0 2.418 0.562 3.027 1.679z"/>
  <path fill="#fff" d="m63.805 11.23c0 4.379-3.528 7.926-7.875 7.926-4.352 0-7.875-3.547-7.875-7.926 0-4.3745 3.523-7.9253 7.875-7.9253 4.347 0 7.875 3.5508 7.875 7.9253z"/>
  <path d="m58.207 8.9375c0-0.3047-0.246-0.5508-0.547-0.5508h-3.48c-0.301 0-0.547 0.2461-0.547 0.5508v3.5005h0.969v4.148h2.636v-4.148h0.969z"/>
  <path d="m57.109 6.7266c0 0.6601-0.531 1.1992-1.187 1.1992-0.66 0-1.192-0.5391-1.192-1.1992 0-0.6602 0.532-1.1954 1.192-1.1954 0.656 0 1.187 0.5352 1.187 1.1954z"/>
  <path fill-rule="evenodd" d="m55.91 2.5c-2.355 0-4.351 0.8281-5.984 2.4805-1.672 1.7109-2.508 3.7383-2.508 6.0785 0 2.336 0.836 4.347 2.508 6.031 1.676 1.683 3.672 2.523 5.984 2.523 2.34 0 4.371-0.847 6.086-2.543 1.617-1.613 2.43-3.617 2.43-6.011 0-2.3988-0.824-4.4223-2.469-6.0785-1.648-1.6524-3.664-2.4805-6.047-2.4805zm0.02 1.5391c1.929 0 3.57 0.6836 4.918 2.0547 1.363 1.3554 2.043 3.0078 2.043 4.9652 0 1.964-0.668 3.601-2 4.898-1.407 1.398-3.059 2.098-4.961 2.098-1.903 0-3.539-0.692-4.918-2.078-1.375-1.383-2.063-3.024-2.063-4.918 0-1.8988 0.696-3.5551 2.086-4.9652 1.332-1.3711 2.965-2.0547 4.895-2.0547z"/>
 </g>
</svg>
