<?xml version="1.0" encoding="UTF-8" standalone="no"?>
<svg width="75px" height="60px" viewBox="0 0 75 60" version="1.1" xmlns="http://www.w3.org/2000/svg" xmlns:xlink="http://www.w3.org/1999/xlink" xmlns:sketch="http://www.bohemiancoding.com/sketch/ns">
    <!-- Generator: Sketch 3.4.3 (16044) - http://www.bohemiancoding.com/sketch -->
    <title>Page 1</title>
    <desc>Created with Sketch.</desc>
    <defs></defs>
    <g id="ARTWORK" stroke="none" stroke-width="1" fill="none" fill-rule="evenodd" sketch:type="MSPage">
        <g id="Staring-a-business" sketch:type="MSArtboardGroup" transform="translate(-28.000000, -130.000000)" fill="#FFFFFF">
            <g id="Group" sketch:type="MSLayerGroup">
                <path d="M79.4136646,184.063768 L33.9362319,184.063768 L33.9362319,138.586335 L79.4136646,138.586335 L79.4136646,138.592133 L85.3515528,132.655072 L85.3515528,132.648447 L28,132.648447 L28,190 L85.3515528,190 L85.3515528,162.313872 L79.4136646,168.250932 L79.4136646,184.063768 Z M47.13706,151.172671 L39.1469979,151.172671 L39.1469979,144.101863 L47.13706,144.101863 L47.13706,151.172671 L47.13706,151.172671 Z M47.13706,164.859627 L39.1469979,164.859627 L39.1469979,157.78882 L47.13706,157.78882 L47.13706,164.859627 L47.13706,164.859627 Z M47.13706,178.547412 L39.1469979,178.547412 L39.1469979,171.476605 L47.13706,171.476605 L47.13706,178.547412 L47.13706,178.547412 Z M95.6198758,130 L71.2380952,154.385093 L58.8066253,141.951967 L51.8931677,148.865424 L71.2380952,168.207867 L102.534161,136.914286 L95.6198758,130 Z" id="Page-1" sketch:type="MSShapeGroup"></path>
            </g>
        </g>
    </g>
</svg>