<?xml version="1.0" encoding="UTF-8" standalone="no"?>
<svg width="20px" height="15px" viewBox="0 0 20 15" version="1.1" xmlns="http://www.w3.org/2000/svg" xmlns:xlink="http://www.w3.org/1999/xlink" xmlns:sketch="http://www.bohemiancoding.com/sketch/ns">
    <!-- Generator: Sketch 3.4.1 (15681) - http://www.bohemiancoding.com/sketch -->
    <title>quote 2</title>
    <desc>Created with Sketch.</desc>
    <defs></defs>
    <g id="Templates" stroke="none" stroke-width="1" fill="none" fill-rule="evenodd" sketch:type="MSPage">
        <g id="Kelly-O’Dwyer---Mobile" sketch:type="MSArtboardGroup" transform="translate(-273.000000, -1089.000000)" fill="#02BFE7">
            <path d="M283.898058,1103.36893 L283.898058,1102.56796 C285.483827,1101.59708 286.519415,1100.6869 287.004854,1099.83738 C287.490294,1098.98786 287.781553,1098.07767 287.878641,1097.1068 C286.567955,1096.94498 285.633498,1096.43528 285.075243,1095.57767 C284.516987,1094.72006 284.237864,1093.88674 284.237864,1093.07767 C284.237864,1092.0097 284.630255,1091.06311 285.415049,1090.23786 C286.199842,1089.41262 287.215204,1089 288.461165,1089 C289.75567,1089 290.835756,1089.49757 291.701456,1090.49272 C292.567156,1091.48787 293,1092.64886 293,1093.97573 C293,1095.43205 292.579292,1096.83171 291.737864,1098.17476 C290.896436,1099.51781 289.775897,1100.64644 288.376214,1101.56068 C286.97653,1102.47492 285.483827,1103.07767 283.898058,1103.36893 L283.898058,1103.36893 Z M273,1103.36893 L273,1102.56796 C274.569587,1101.61326 275.60113,1100.70712 276.09466,1099.84951 C276.58819,1098.99191 276.883495,1098.07767 276.980583,1097.1068 C275.686078,1096.94498 274.759712,1096.43528 274.201456,1095.57767 C273.643201,1094.72006 273.364078,1093.88674 273.364078,1093.07767 C273.364078,1092.0097 273.756469,1091.06311 274.541262,1090.23786 C275.326056,1089.41262 276.341418,1089 277.587379,1089 C278.865702,1089 279.937698,1089.49757 280.803398,1090.49272 C281.669098,1091.48787 282.101942,1092.64886 282.101942,1093.97573 C282.101942,1095.46441 281.689325,1096.86812 280.864078,1098.18689 C280.038831,1099.50567 278.930428,1100.62621 277.538835,1101.54854 C276.147242,1102.47088 274.634312,1103.07767 273,1103.36893 L273,1103.36893 Z" id="quote-2" sketch:type="MSShapeGroup"></path>
        </g>
    </g>
</svg>