<?xml version="1.0" encoding="UTF-8" standalone="no"?>
<svg width="340px" height="84px" viewBox="0 0 340 84" version="1.1" xmlns="http://www.w3.org/2000/svg" xmlns:xlink="http://www.w3.org/1999/xlink" xmlns:sketch="http://www.bohemiancoding.com/sketch/ns">
    <!-- Generator: Sketch 3.4.1 (15681) - http://www.bohemiancoding.com/sketch -->
    <title>Group</title>
    <desc>Created with Sketch.</desc>
    <defs></defs>
    <g id="Templates" stroke="none" stroke-width="1" fill="none" fill-rule="evenodd" sketch:type="MSPage">
        <g id="Desktop-HD-HOME" sketch:type="MSArtboardGroup" transform="translate(-535.000000, -1996.000000)" fill="#427FC2">
            <g id="Main-article" sketch:type="MSLayerGroup" transform="translate(0.000000, 80.000000)">
                <g id="Group" transform="translate(535.000000, 1916.000000)" sketch:type="MSShapeGroup">
                    <path d="M36.2143,44.956 C36.5903,46.27 37.3303,47.452 38.7013,47.452 C40.0753,47.452 41.1943,46.334 41.1943,44.956 L35.0653,22.02 C34.0633,18.788 32.5163,16.322 29.3613,16.322 L11.7933,16.322 C8.6533,16.322 6.9333,19.053 6.0953,22.02 L0.0003,45.04 C0.0003,46.417 1.1153,47.532 2.4893,47.532 C3.8613,47.532 4.4803,46.522 4.9733,45.04 L11.0873,24.002 L12.1413,24.002 L2.5143,58.306 L12.1413,58.306 L12.1413,80.268 C12.1413,82.326 13.8083,84 15.8763,84 C17.9313,84 19.5983,82.326 19.5983,80.268 L19.5983,58.306 L21.6383,58.306 L21.6383,80.265 C21.6383,82.326 23.3123,84 25.3733,84 C27.4283,84 29.1023,82.326 29.1023,80.265 L29.1023,58.306 L39.0553,58.306 L29.1023,24.002 L30.1003,24.002 L36.2143,44.956 Z" id="Fill-1"></path>
                    <path d="M20.7758,13.9931 C24.2338,13.9931 27.0348,11.1881 27.0348,7.7371 C27.0348,4.2861 24.2338,1.4881 20.7758,1.4881 C17.3248,1.4881 14.5288,4.2861 14.5288,7.7371 C14.5288,11.1881 17.3248,13.9931 20.7758,13.9931" id="Fill-3"></path>
                    <path d="M60.5717,14.9863 C60.6907,15.4023 60.9257,15.7773 61.3597,15.7773 C61.7957,15.7773 62.1497,15.4223 62.1497,14.9863 L60.2077,7.7173 C59.8897,6.6933 59.3997,5.9123 58.3997,5.9123 L52.8327,5.9123 C51.8377,5.9123 51.2927,6.7773 51.0267,7.7173 L49.0947,15.0123 C49.0947,15.4493 49.4487,15.8023 49.8837,15.8023 C50.3187,15.8023 50.5147,15.4823 50.6717,15.0123 L52.6087,8.3453 L52.9427,8.3453 L49.8917,19.2163 L52.9427,19.2163 L52.9427,26.1763 C52.9427,26.8293 53.4717,27.3593 54.1267,27.3593 C54.7777,27.3593 55.3057,26.8293 55.3057,26.1763 L55.3057,19.2163 L55.9527,19.2163 L55.9527,26.1753 C55.9527,26.8293 56.4827,27.3593 57.1357,27.3593 C57.7877,27.3593 58.3177,26.8293 58.3177,26.1753 L58.3177,19.2163 L61.4717,19.2163 L58.3177,8.3453 L58.6347,8.3453 L60.5717,14.9863 Z" id="Fill-5"></path>
                    <path d="M55.6792,5.1738 C56.7752,5.1738 57.6622,4.2848 57.6622,3.1918 C57.6622,2.0978 56.7752,1.2108 55.6792,1.2108 C54.5852,1.2108 53.7002,2.0978 53.7002,3.1918 C53.7002,4.2848 54.5852,5.1738 55.6792,5.1738" id="Fill-7"></path>
                    <path d="M77.9897,14.9863 C78.1087,15.4023 78.3437,15.7773 78.7777,15.7773 C79.2137,15.7773 79.5677,15.4223 79.5677,14.9863 L77.6257,7.7173 C77.3077,6.6933 76.8177,5.9123 75.8177,5.9123 L70.2507,5.9123 C69.2557,5.9123 68.7107,6.7773 68.4447,7.7173 L66.5127,15.0123 C66.5127,15.4493 66.8667,15.8023 67.3017,15.8023 C67.7367,15.8023 67.9327,15.4823 68.0897,15.0123 L70.0267,8.3453 L70.3607,8.3453 L67.3097,19.2163 L70.3607,19.2163 L70.3607,26.1763 C70.3607,26.8293 70.8887,27.3593 71.5447,27.3593 C72.1957,27.3593 72.7237,26.8293 72.7237,26.1763 L72.7237,19.2163 L73.3707,19.2163 L73.3707,26.1753 C73.3707,26.8293 73.9007,27.3593 74.5537,27.3593 C75.2057,27.3593 75.7357,26.8293 75.7357,26.1753 L75.7357,19.2163 L78.8897,19.2163 L75.7357,8.3453 L76.0527,8.3453 L77.9897,14.9863 Z" id="Fill-9"></path>
                    <path d="M73.0971,5.1738 C74.1931,5.1738 75.0801,4.2848 75.0801,3.1918 C75.0801,2.0978 74.1931,1.2108 73.0971,1.2108 C72.0031,1.2108 71.1171,2.0978 71.1171,3.1918 C71.1171,4.2848 72.0031,5.1738 73.0971,5.1738" id="Fill-11"></path>
                    <path d="M95.4077,14.9863 C95.5267,15.4023 95.7617,15.7773 96.1957,15.7773 C96.6317,15.7773 96.9857,15.4223 96.9857,14.9863 L95.0437,7.7173 C94.7257,6.6933 94.2357,5.9123 93.2357,5.9123 L87.6687,5.9123 C86.6737,5.9123 86.1287,6.7773 85.8627,7.7173 L83.9307,15.0123 C83.9307,15.4493 84.2847,15.8023 84.7197,15.8023 C85.1547,15.8023 85.3507,15.4823 85.5077,15.0123 L87.4447,8.3453 L87.7787,8.3453 L84.7277,19.2163 L87.7787,19.2163 L87.7787,26.1763 C87.7787,26.8293 88.3067,27.3593 88.9627,27.3593 C89.6137,27.3593 90.1417,26.8293 90.1417,26.1763 L90.1417,19.2163 L90.7887,19.2163 L90.7887,26.1753 C90.7887,26.8293 91.3187,27.3593 91.9717,27.3593 C92.6237,27.3593 93.1537,26.8293 93.1537,26.1753 L93.1537,19.2163 L96.3077,19.2163 L93.1537,8.3453 L93.4707,8.3453 L95.4077,14.9863 Z" id="Fill-13"></path>
                    <path d="M90.5151,5.1738 C91.6111,5.1738 92.4981,4.2848 92.4981,3.1918 C92.4981,2.0978 91.6111,1.2108 90.5151,1.2108 C89.4211,1.2108 88.5351,2.0978 88.5351,3.1918 C88.5351,4.2848 89.4211,5.1738 90.5151,5.1738" id="Fill-15"></path>
                    <path d="M112.8257,14.9863 C112.9447,15.4023 113.1797,15.7773 113.6137,15.7773 C114.0497,15.7773 114.4037,15.4223 114.4037,14.9863 L112.4617,7.7173 C112.1437,6.6933 111.6537,5.9123 110.6537,5.9123 L105.0867,5.9123 C104.0917,5.9123 103.5467,6.7773 103.2807,7.7173 L101.3487,15.0123 C101.3487,15.4493 101.7027,15.8023 102.1377,15.8023 C102.5727,15.8023 102.7687,15.4823 102.9257,15.0123 L104.8627,8.3453 L105.1967,8.3453 L102.1457,19.2163 L105.1967,19.2163 L105.1967,26.1763 C105.1967,26.8293 105.7247,27.3593 106.3807,27.3593 C107.0317,27.3593 107.5597,26.8293 107.5597,26.1763 L107.5597,19.2163 L108.2067,19.2163 L108.2067,26.1753 C108.2067,26.8293 108.7367,27.3593 109.3897,27.3593 C110.0417,27.3593 110.5717,26.8293 110.5717,26.1753 L110.5717,19.2163 L113.7257,19.2163 L110.5717,8.3453 L110.8887,8.3453 L112.8257,14.9863 Z" id="Fill-17"></path>
                    <path d="M107.9331,5.1738 C109.0291,5.1738 109.9161,4.2848 109.9161,3.1918 C109.9161,2.0978 109.0291,1.2108 107.9331,1.2108 C106.8391,1.2108 105.9531,2.0978 105.9531,3.1918 C105.9531,4.2848 106.8391,5.1738 107.9331,5.1738" id="Fill-19"></path>
                    <path d="M130.2436,14.9863 C130.3626,15.4023 130.5966,15.7773 131.0316,15.7773 C131.4676,15.7773 131.8216,15.4223 131.8216,14.9863 L129.8796,7.7173 C129.5616,6.6933 129.0716,5.9123 128.0716,5.9123 L122.5046,5.9123 C121.5096,5.9123 120.9646,6.7773 120.6986,7.7173 L118.7666,15.0123 C118.7666,15.4493 119.1206,15.8023 119.5556,15.8023 C119.9906,15.8023 120.1866,15.4823 120.3436,15.0123 L122.2806,8.3453 L122.6146,8.3453 L119.5636,19.2163 L122.6146,19.2163 L122.6146,26.1763 C122.6146,26.8293 123.1426,27.3593 123.7986,27.3593 C124.4496,27.3593 124.9776,26.8293 124.9776,26.1763 L124.9776,19.2163 L125.6246,19.2163 L125.6246,26.1753 C125.6246,26.8293 126.1546,27.3593 126.8076,27.3593 C127.4596,27.3593 127.9896,26.8293 127.9896,26.1753 L127.9896,19.2163 L131.1436,19.2163 L127.9896,8.3453 L128.3056,8.3453 L130.2436,14.9863 Z" id="Fill-21"></path>
                    <path d="M125.351,5.1738 C126.447,5.1738 127.334,4.2848 127.334,3.1918 C127.334,2.0978 126.447,1.2108 125.351,1.2108 C124.257,1.2108 123.372,2.0978 123.372,3.1918 C123.372,4.2848 124.257,5.1738 125.351,5.1738" id="Fill-23"></path>
                    <path d="M147.6616,14.9863 C147.7806,15.4023 148.0146,15.7773 148.4496,15.7773 C148.8856,15.7773 149.2396,15.4223 149.2396,14.9863 L147.2976,7.7173 C146.9796,6.6933 146.4896,5.9123 145.4896,5.9123 L139.9226,5.9123 C138.9276,5.9123 138.3826,6.7773 138.1166,7.7173 L136.1846,15.0123 C136.1846,15.4493 136.5386,15.8023 136.9736,15.8023 C137.4086,15.8023 137.6046,15.4823 137.7616,15.0123 L139.6986,8.3453 L140.0326,8.3453 L136.9816,19.2163 L140.0326,19.2163 L140.0326,26.1763 C140.0326,26.8293 140.5606,27.3593 141.2166,27.3593 C141.8676,27.3593 142.3956,26.8293 142.3956,26.1763 L142.3956,19.2163 L143.0426,19.2163 L143.0426,26.1753 C143.0426,26.8293 143.5726,27.3593 144.2256,27.3593 C144.8776,27.3593 145.4076,26.8293 145.4076,26.1753 L145.4076,19.2163 L148.5616,19.2163 L145.4076,8.3453 L145.7236,8.3453 L147.6616,14.9863 Z" id="Fill-25"></path>
                    <path d="M142.769,5.1738 C143.865,5.1738 144.752,4.2848 144.752,3.1918 C144.752,2.0978 143.865,1.2108 142.769,1.2108 C141.675,1.2108 140.789,2.0978 140.789,3.1918 C140.789,4.2848 141.675,5.1738 142.769,5.1738" id="Fill-27"></path>
                    <path d="M165.0796,14.9863 C165.1986,15.4023 165.4326,15.7773 165.8676,15.7773 C166.3036,15.7773 166.6576,15.4223 166.6576,14.9863 L164.7156,7.7173 C164.3976,6.6933 163.9076,5.9123 162.9076,5.9123 L157.3406,5.9123 C156.3456,5.9123 155.8006,6.7773 155.5346,7.7173 L153.6026,15.0123 C153.6026,15.4493 153.9566,15.8023 154.3916,15.8023 C154.8266,15.8023 155.0226,15.4823 155.1796,15.0123 L157.1166,8.3453 L157.4506,8.3453 L154.3996,19.2163 L157.4506,19.2163 L157.4506,26.1763 C157.4506,26.8293 157.9786,27.3593 158.6346,27.3593 C159.2856,27.3593 159.8136,26.8293 159.8136,26.1763 L159.8136,19.2163 L160.4606,19.2163 L160.4606,26.1753 C160.4606,26.8293 160.9906,27.3593 161.6436,27.3593 C162.2956,27.3593 162.8256,26.8293 162.8256,26.1753 L162.8256,19.2163 L165.9796,19.2163 L162.8256,8.3453 L163.1416,8.3453 L165.0796,14.9863 Z" id="Fill-29"></path>
                    <path d="M160.187,5.1738 C161.283,5.1738 162.17,4.2848 162.17,3.1918 C162.17,2.0978 161.283,1.2108 160.187,1.2108 C159.093,1.2108 158.207,2.0978 158.207,3.1918 C158.207,4.2848 159.093,5.1738 160.187,5.1738" id="Fill-31"></path>
                    <path d="M60.5717,43.3066 C60.6907,43.7226 60.9257,44.0976 61.3597,44.0976 C61.7957,44.0976 62.1497,43.7436 62.1497,43.3066 L60.2077,36.0386 C59.8897,35.0136 59.3997,34.2326 58.3997,34.2326 L52.8327,34.2326 C51.8377,34.2326 51.2927,35.0976 51.0267,36.0386 L49.0947,43.3326 C49.0947,43.7696 49.4487,44.1226 49.8837,44.1226 C50.3187,44.1226 50.5147,43.8026 50.6717,43.3326 L52.6087,36.6656 L52.9427,36.6656 L49.8917,47.5366 L52.9427,47.5366 L52.9427,54.4966 C52.9427,55.1496 53.4717,55.6796 54.1267,55.6796 C54.7777,55.6796 55.3057,55.1496 55.3057,54.4966 L55.3057,47.5366 L55.9527,47.5366 L55.9527,54.4956 C55.9527,55.1496 56.4827,55.6796 57.1357,55.6796 C57.7877,55.6796 58.3177,55.1496 58.3177,54.4956 L58.3177,47.5366 L61.4717,47.5366 L58.3177,36.6656 L58.6347,36.6656 L60.5717,43.3066 Z" id="Fill-33"></path>
                    <path d="M55.6792,33.4941 C56.7752,33.4941 57.6622,32.6051 57.6622,31.5121 C57.6622,30.4181 56.7752,29.5311 55.6792,29.5311 C54.5852,29.5311 53.7002,30.4181 53.7002,31.5121 C53.7002,32.6051 54.5852,33.4941 55.6792,33.4941" id="Fill-35"></path>
                    <path d="M77.9897,43.3066 C78.1087,43.7226 78.3437,44.0976 78.7777,44.0976 C79.2137,44.0976 79.5677,43.7436 79.5677,43.3066 L77.6257,36.0386 C77.3077,35.0136 76.8177,34.2326 75.8177,34.2326 L70.2507,34.2326 C69.2557,34.2326 68.7107,35.0976 68.4447,36.0386 L66.5127,43.3326 C66.5127,43.7696 66.8667,44.1226 67.3017,44.1226 C67.7367,44.1226 67.9327,43.8026 68.0897,43.3326 L70.0267,36.6656 L70.3607,36.6656 L67.3097,47.5366 L70.3607,47.5366 L70.3607,54.4966 C70.3607,55.1496 70.8887,55.6796 71.5447,55.6796 C72.1957,55.6796 72.7237,55.1496 72.7237,54.4966 L72.7237,47.5366 L73.3707,47.5366 L73.3707,54.4956 C73.3707,55.1496 73.9007,55.6796 74.5537,55.6796 C75.2057,55.6796 75.7357,55.1496 75.7357,54.4956 L75.7357,47.5366 L78.8897,47.5366 L75.7357,36.6656 L76.0527,36.6656 L77.9897,43.3066 Z" id="Fill-37"></path>
                    <path d="M73.0971,33.4941 C74.1931,33.4941 75.0801,32.6051 75.0801,31.5121 C75.0801,30.4181 74.1931,29.5311 73.0971,29.5311 C72.0031,29.5311 71.1171,30.4181 71.1171,31.5121 C71.1171,32.6051 72.0031,33.4941 73.0971,33.4941" id="Fill-39"></path>
                    <path d="M95.4077,43.3066 C95.5267,43.7226 95.7617,44.0976 96.1957,44.0976 C96.6317,44.0976 96.9857,43.7436 96.9857,43.3066 L95.0437,36.0386 C94.7257,35.0136 94.2357,34.2326 93.2357,34.2326 L87.6687,34.2326 C86.6737,34.2326 86.1287,35.0976 85.8627,36.0386 L83.9307,43.3326 C83.9307,43.7696 84.2847,44.1226 84.7197,44.1226 C85.1547,44.1226 85.3507,43.8026 85.5077,43.3326 L87.4447,36.6656 L87.7787,36.6656 L84.7277,47.5366 L87.7787,47.5366 L87.7787,54.4966 C87.7787,55.1496 88.3067,55.6796 88.9627,55.6796 C89.6137,55.6796 90.1417,55.1496 90.1417,54.4966 L90.1417,47.5366 L90.7887,47.5366 L90.7887,54.4956 C90.7887,55.1496 91.3187,55.6796 91.9717,55.6796 C92.6237,55.6796 93.1537,55.1496 93.1537,54.4956 L93.1537,47.5366 L96.3077,47.5366 L93.1537,36.6656 L93.4707,36.6656 L95.4077,43.3066 Z" id="Fill-41"></path>
                    <path d="M90.5151,33.4941 C91.6111,33.4941 92.4981,32.6051 92.4981,31.5121 C92.4981,30.4181 91.6111,29.5311 90.5151,29.5311 C89.4211,29.5311 88.5351,30.4181 88.5351,31.5121 C88.5351,32.6051 89.4211,33.4941 90.5151,33.4941" id="Fill-43"></path>
                    <path d="M112.8257,43.3066 C112.9447,43.7226 113.1797,44.0976 113.6137,44.0976 C114.0497,44.0976 114.4037,43.7436 114.4037,43.3066 L112.4617,36.0386 C112.1437,35.0136 111.6537,34.2326 110.6537,34.2326 L105.0867,34.2326 C104.0917,34.2326 103.5467,35.0976 103.2807,36.0386 L101.3487,43.3326 C101.3487,43.7696 101.7027,44.1226 102.1377,44.1226 C102.5727,44.1226 102.7687,43.8026 102.9257,43.3326 L104.8627,36.6656 L105.1967,36.6656 L102.1457,47.5366 L105.1967,47.5366 L105.1967,54.4966 C105.1967,55.1496 105.7247,55.6796 106.3807,55.6796 C107.0317,55.6796 107.5597,55.1496 107.5597,54.4966 L107.5597,47.5366 L108.2067,47.5366 L108.2067,54.4956 C108.2067,55.1496 108.7367,55.6796 109.3897,55.6796 C110.0417,55.6796 110.5717,55.1496 110.5717,54.4956 L110.5717,47.5366 L113.7257,47.5366 L110.5717,36.6656 L110.8887,36.6656 L112.8257,43.3066 Z" id="Fill-45"></path>
                    <path d="M107.9331,33.4941 C109.0291,33.4941 109.9161,32.6051 109.9161,31.5121 C109.9161,30.4181 109.0291,29.5311 107.9331,29.5311 C106.8391,29.5311 105.9531,30.4181 105.9531,31.5121 C105.9531,32.6051 106.8391,33.4941 107.9331,33.4941" id="Fill-47"></path>
                    <path d="M130.2436,43.3066 C130.3626,43.7226 130.5966,44.0976 131.0316,44.0976 C131.4676,44.0976 131.8216,43.7436 131.8216,43.3066 L129.8796,36.0386 C129.5616,35.0136 129.0716,34.2326 128.0716,34.2326 L122.5046,34.2326 C121.5096,34.2326 120.9646,35.0976 120.6986,36.0386 L118.7666,43.3326 C118.7666,43.7696 119.1206,44.1226 119.5556,44.1226 C119.9906,44.1226 120.1866,43.8026 120.3436,43.3326 L122.2806,36.6656 L122.6146,36.6656 L119.5636,47.5366 L122.6146,47.5366 L122.6146,54.4966 C122.6146,55.1496 123.1426,55.6796 123.7986,55.6796 C124.4496,55.6796 124.9776,55.1496 124.9776,54.4966 L124.9776,47.5366 L125.6246,47.5366 L125.6246,54.4956 C125.6246,55.1496 126.1546,55.6796 126.8076,55.6796 C127.4596,55.6796 127.9896,55.1496 127.9896,54.4956 L127.9896,47.5366 L131.1436,47.5366 L127.9896,36.6656 L128.3056,36.6656 L130.2436,43.3066 Z" id="Fill-49"></path>
                    <path d="M125.351,33.4941 C126.447,33.4941 127.334,32.6051 127.334,31.5121 C127.334,30.4181 126.447,29.5311 125.351,29.5311 C124.257,29.5311 123.372,30.4181 123.372,31.5121 C123.372,32.6051 124.257,33.4941 125.351,33.4941" id="Fill-51"></path>
                    <path d="M147.6616,43.3066 C147.7806,43.7226 148.0146,44.0976 148.4496,44.0976 C148.8856,44.0976 149.2396,43.7436 149.2396,43.3066 L147.2976,36.0386 C146.9796,35.0136 146.4896,34.2326 145.4896,34.2326 L139.9226,34.2326 C138.9276,34.2326 138.3826,35.0976 138.1166,36.0386 L136.1846,43.3326 C136.1846,43.7696 136.5386,44.1226 136.9736,44.1226 C137.4086,44.1226 137.6046,43.8026 137.7616,43.3326 L139.6986,36.6656 L140.0326,36.6656 L136.9816,47.5366 L140.0326,47.5366 L140.0326,54.4966 C140.0326,55.1496 140.5606,55.6796 141.2166,55.6796 C141.8676,55.6796 142.3956,55.1496 142.3956,54.4966 L142.3956,47.5366 L143.0426,47.5366 L143.0426,54.4956 C143.0426,55.1496 143.5726,55.6796 144.2256,55.6796 C144.8776,55.6796 145.4076,55.1496 145.4076,54.4956 L145.4076,47.5366 L148.5616,47.5366 L145.4076,36.6656 L145.7236,36.6656 L147.6616,43.3066 Z" id="Fill-53"></path>
                    <path d="M142.769,33.4941 C143.865,33.4941 144.752,32.6051 144.752,31.5121 C144.752,30.4181 143.865,29.5311 142.769,29.5311 C141.675,29.5311 140.789,30.4181 140.789,31.5121 C140.789,32.6051 141.675,33.4941 142.769,33.4941" id="Fill-55"></path>
                    <path d="M165.0796,43.3066 C165.1986,43.7226 165.4326,44.0976 165.8676,44.0976 C166.3036,44.0976 166.6576,43.7436 166.6576,43.3066 L164.7156,36.0386 C164.3976,35.0136 163.9076,34.2326 162.9076,34.2326 L157.3406,34.2326 C156.3456,34.2326 155.8006,35.0976 155.5346,36.0386 L153.6026,43.3326 C153.6026,43.7696 153.9566,44.1226 154.3916,44.1226 C154.8266,44.1226 155.0226,43.8026 155.1796,43.3326 L157.1166,36.6656 L157.4506,36.6656 L154.3996,47.5366 L157.4506,47.5366 L157.4506,54.4966 C157.4506,55.1496 157.9786,55.6796 158.6346,55.6796 C159.2856,55.6796 159.8136,55.1496 159.8136,54.4966 L159.8136,47.5366 L160.4606,47.5366 L160.4606,54.4956 C160.4606,55.1496 160.9906,55.6796 161.6436,55.6796 C162.2956,55.6796 162.8256,55.1496 162.8256,54.4956 L162.8256,47.5366 L165.9796,47.5366 L162.8256,36.6656 L163.1416,36.6656 L165.0796,43.3066 Z" id="Fill-57"></path>
                    <path d="M160.187,33.4941 C161.283,33.4941 162.17,32.6051 162.17,31.5121 C162.17,30.4181 161.283,29.5311 160.187,29.5311 C159.093,29.5311 158.207,30.4181 158.207,31.5121 C158.207,32.6051 159.093,33.4941 160.187,33.4941" id="Fill-59"></path>
                    <path d="M60.5717,71.6269 C60.6907,72.0429 60.9257,72.4179 61.3597,72.4179 C61.7957,72.4179 62.1497,72.0639 62.1497,71.6269 L60.2077,64.3589 C59.8897,63.3339 59.3997,62.5529 58.3997,62.5529 L52.8327,62.5529 C51.8377,62.5529 51.2927,63.4179 51.0267,64.3589 L49.0947,71.6529 C49.0947,72.0899 49.4487,72.4429 49.8837,72.4429 C50.3187,72.4429 50.5147,72.1229 50.6717,71.6529 L52.6087,64.9859 L52.9427,64.9859 L49.8917,75.8579 L52.9427,75.8579 L52.9427,82.8169 C52.9427,83.4699 53.4717,83.9999 54.1267,83.9999 C54.7777,83.9999 55.3057,83.4699 55.3057,82.8169 L55.3057,75.8579 L55.9527,75.8579 L55.9527,82.8169 C55.9527,83.4699 56.4827,83.9999 57.1357,83.9999 C57.7877,83.9999 58.3177,83.4699 58.3177,82.8169 L58.3177,75.8579 L61.4717,75.8579 L58.3177,64.9859 L58.6347,64.9859 L60.5717,71.6269 Z" id="Fill-61"></path>
                    <path d="M55.6792,61.8144 C56.7752,61.8144 57.6622,60.9254 57.6622,59.8324 C57.6622,58.7384 56.7752,57.8514 55.6792,57.8514 C54.5852,57.8514 53.7002,58.7384 53.7002,59.8324 C53.7002,60.9254 54.5852,61.8144 55.6792,61.8144" id="Fill-63"></path>
                    <path d="M77.9897,71.6269 C78.1087,72.0429 78.3437,72.4179 78.7777,72.4179 C79.2137,72.4179 79.5677,72.0639 79.5677,71.6269 L77.6257,64.3589 C77.3077,63.3339 76.8177,62.5529 75.8177,62.5529 L70.2507,62.5529 C69.2557,62.5529 68.7107,63.4179 68.4447,64.3589 L66.5127,71.6529 C66.5127,72.0899 66.8667,72.4429 67.3017,72.4429 C67.7367,72.4429 67.9327,72.1229 68.0897,71.6529 L70.0267,64.9859 L70.3607,64.9859 L67.3097,75.8579 L70.3607,75.8579 L70.3607,82.8169 C70.3607,83.4699 70.8887,83.9999 71.5447,83.9999 C72.1957,83.9999 72.7237,83.4699 72.7237,82.8169 L72.7237,75.8579 L73.3707,75.8579 L73.3707,82.8169 C73.3707,83.4699 73.9007,83.9999 74.5537,83.9999 C75.2057,83.9999 75.7357,83.4699 75.7357,82.8169 L75.7357,75.8579 L78.8897,75.8579 L75.7357,64.9859 L76.0527,64.9859 L77.9897,71.6269 Z" id="Fill-65"></path>
                    <path d="M73.0971,61.8144 C74.1931,61.8144 75.0801,60.9254 75.0801,59.8324 C75.0801,58.7384 74.1931,57.8514 73.0971,57.8514 C72.0031,57.8514 71.1171,58.7384 71.1171,59.8324 C71.1171,60.9254 72.0031,61.8144 73.0971,61.8144" id="Fill-67"></path>
                    <path d="M95.4077,71.6269 C95.5267,72.0429 95.7617,72.4179 96.1957,72.4179 C96.6317,72.4179 96.9857,72.0639 96.9857,71.6269 L95.0437,64.3589 C94.7257,63.3339 94.2357,62.5529 93.2357,62.5529 L87.6687,62.5529 C86.6737,62.5529 86.1287,63.4179 85.8627,64.3589 L83.9307,71.6529 C83.9307,72.0899 84.2847,72.4429 84.7197,72.4429 C85.1547,72.4429 85.3507,72.1229 85.5077,71.6529 L87.4447,64.9859 L87.7787,64.9859 L84.7277,75.8579 L87.7787,75.8579 L87.7787,82.8169 C87.7787,83.4699 88.3067,83.9999 88.9627,83.9999 C89.6137,83.9999 90.1417,83.4699 90.1417,82.8169 L90.1417,75.8579 L90.7887,75.8579 L90.7887,82.8169 C90.7887,83.4699 91.3187,83.9999 91.9717,83.9999 C92.6237,83.9999 93.1537,83.4699 93.1537,82.8169 L93.1537,75.8579 L96.3077,75.8579 L93.1537,64.9859 L93.4707,64.9859 L95.4077,71.6269 Z" id="Fill-69"></path>
                    <path d="M90.5151,61.8144 C91.6111,61.8144 92.4981,60.9254 92.4981,59.8324 C92.4981,58.7384 91.6111,57.8514 90.5151,57.8514 C89.4211,57.8514 88.5351,58.7384 88.5351,59.8324 C88.5351,60.9254 89.4211,61.8144 90.5151,61.8144" id="Fill-71"></path>
                    <path d="M112.8257,71.6269 C112.9447,72.0429 113.1797,72.4179 113.6137,72.4179 C114.0497,72.4179 114.4037,72.0639 114.4037,71.6269 L112.4617,64.3589 C112.1437,63.3339 111.6537,62.5529 110.6537,62.5529 L105.0867,62.5529 C104.0917,62.5529 103.5467,63.4179 103.2807,64.3589 L101.3487,71.6529 C101.3487,72.0899 101.7027,72.4429 102.1377,72.4429 C102.5727,72.4429 102.7687,72.1229 102.9257,71.6529 L104.8627,64.9859 L105.1967,64.9859 L102.1457,75.8579 L105.1967,75.8579 L105.1967,82.8169 C105.1967,83.4699 105.7247,83.9999 106.3807,83.9999 C107.0317,83.9999 107.5597,83.4699 107.5597,82.8169 L107.5597,75.8579 L108.2067,75.8579 L108.2067,82.8169 C108.2067,83.4699 108.7367,83.9999 109.3897,83.9999 C110.0417,83.9999 110.5717,83.4699 110.5717,82.8169 L110.5717,75.8579 L113.7257,75.8579 L110.5717,64.9859 L110.8887,64.9859 L112.8257,71.6269 Z" id="Fill-73"></path>
                    <path d="M107.9331,61.8144 C109.0291,61.8144 109.9161,60.9254 109.9161,59.8324 C109.9161,58.7384 109.0291,57.8514 107.9331,57.8514 C106.8391,57.8514 105.9531,58.7384 105.9531,59.8324 C105.9531,60.9254 106.8391,61.8144 107.9331,61.8144" id="Fill-75"></path>
                    <path d="M130.2436,71.6269 C130.3626,72.0429 130.5966,72.4179 131.0316,72.4179 C131.4676,72.4179 131.8216,72.0639 131.8216,71.6269 L129.8796,64.3589 C129.5616,63.3339 129.0716,62.5529 128.0716,62.5529 L122.5046,62.5529 C121.5096,62.5529 120.9646,63.4179 120.6986,64.3589 L118.7666,71.6529 C118.7666,72.0899 119.1206,72.4429 119.5556,72.4429 C119.9906,72.4429 120.1866,72.1229 120.3436,71.6529 L122.2806,64.9859 L122.6146,64.9859 L119.5636,75.8579 L122.6146,75.8579 L122.6146,82.8169 C122.6146,83.4699 123.1426,83.9999 123.7986,83.9999 C124.4496,83.9999 124.9776,83.4699 124.9776,82.8169 L124.9776,75.8579 L125.6246,75.8579 L125.6246,82.8169 C125.6246,83.4699 126.1546,83.9999 126.8076,83.9999 C127.4596,83.9999 127.9896,83.4699 127.9896,82.8169 L127.9896,75.8579 L131.1436,75.8579 L127.9896,64.9859 L128.3056,64.9859 L130.2436,71.6269 Z" id="Fill-77"></path>
                    <path d="M125.351,61.8144 C126.447,61.8144 127.334,60.9254 127.334,59.8324 C127.334,58.7384 126.447,57.8514 125.351,57.8514 C124.257,57.8514 123.372,58.7384 123.372,59.8324 C123.372,60.9254 124.257,61.8144 125.351,61.8144" id="Fill-79"></path>
                    <path d="M147.6616,71.6269 C147.7806,72.0429 148.0146,72.4179 148.4496,72.4179 C148.8856,72.4179 149.2396,72.0639 149.2396,71.6269 L147.2976,64.3589 C146.9796,63.3339 146.4896,62.5529 145.4896,62.5529 L139.9226,62.5529 C138.9276,62.5529 138.3826,63.4179 138.1166,64.3589 L136.1846,71.6529 C136.1846,72.0899 136.5386,72.4429 136.9736,72.4429 C137.4086,72.4429 137.6046,72.1229 137.7616,71.6529 L139.6986,64.9859 L140.0326,64.9859 L136.9816,75.8579 L140.0326,75.8579 L140.0326,82.8169 C140.0326,83.4699 140.5606,83.9999 141.2166,83.9999 C141.8676,83.9999 142.3956,83.4699 142.3956,82.8169 L142.3956,75.8579 L143.0426,75.8579 L143.0426,82.8169 C143.0426,83.4699 143.5726,83.9999 144.2256,83.9999 C144.8776,83.9999 145.4076,83.4699 145.4076,82.8169 L145.4076,75.8579 L148.5616,75.8579 L145.4076,64.9859 L145.7236,64.9859 L147.6616,71.6269 Z" id="Fill-81"></path>
                    <path d="M142.769,61.8144 C143.865,61.8144 144.752,60.9254 144.752,59.8324 C144.752,58.7384 143.865,57.8514 142.769,57.8514 C141.675,57.8514 140.789,58.7384 140.789,59.8324 C140.789,60.9254 141.675,61.8144 142.769,61.8144" id="Fill-83"></path>
                    <path d="M165.0796,71.6269 C165.1986,72.0429 165.4326,72.4179 165.8676,72.4179 C166.3036,72.4179 166.6576,72.0639 166.6576,71.6269 L164.7156,64.3589 C164.3976,63.3339 163.9076,62.5529 162.9076,62.5529 L157.3406,62.5529 C156.3456,62.5529 155.8006,63.4179 155.5346,64.3589 L153.6026,71.6529 C153.6026,72.0899 153.9566,72.4429 154.3916,72.4429 C154.8266,72.4429 155.0226,72.1229 155.1796,71.6529 L157.1166,64.9859 L157.4506,64.9859 L154.3996,75.8579 L157.4506,75.8579 L157.4506,82.8169 C157.4506,83.4699 157.9786,83.9999 158.6346,83.9999 C159.2856,83.9999 159.8136,83.4699 159.8136,82.8169 L159.8136,75.8579 L160.4606,75.8579 L160.4606,82.8169 C160.4606,83.4699 160.9906,83.9999 161.6436,83.9999 C162.2956,83.9999 162.8256,83.4699 162.8256,82.8169 L162.8256,75.8579 L165.9796,75.8579 L162.8256,64.9859 L163.1416,64.9859 L165.0796,71.6269 Z" id="Fill-85"></path>
                    <path d="M160.187,61.8144 C161.283,61.8144 162.17,60.9254 162.17,59.8324 C162.17,58.7384 161.283,57.8514 160.187,57.8514 C159.093,57.8514 158.207,58.7384 158.207,59.8324 C158.207,60.9254 159.093,61.8144 160.187,61.8144" id="Fill-87"></path>
                    <path d="M199.7378,7.4902 C199.7378,6.5012 198.9358,5.7002 197.9478,5.7002 L192.4338,5.7002 C191.4468,5.7002 190.6458,6.5012 190.6458,7.4902 L190.6508,14.7142 C190.6508,15.1452 191.0008,15.4962 191.4308,15.4962 C191.8618,15.4962 192.2128,15.1452 192.2128,14.7142 L192.2128,8.1112 L192.5438,8.1112 L192.5438,25.7712 C192.5438,26.4172 193.0658,26.9412 193.7148,26.9412 C194.3598,26.9412 194.8838,26.4172 194.8838,25.7712 L194.8838,16.1002 L195.5238,16.1002 L195.5238,25.7682 C195.5238,26.4162 196.0488,26.9412 196.6958,26.9412 C197.3418,26.9412 197.8658,26.4162 197.8658,25.7682 L197.8658,8.1112 L198.1788,8.1112 L198.1788,14.6872 C198.1788,15.1202 198.5298,15.4712 198.9618,15.4712 C199.3938,15.4712 199.7428,15.1202 199.7428,14.6872 L199.7378,7.4902 Z M195.2538,4.9702 C196.3378,4.9702 197.2178,4.0902 197.2178,3.0072 C197.2178,1.9242 196.3378,1.0452 195.2538,1.0452 C194.1708,1.0452 193.2928,1.9242 193.2928,3.0072 C193.2928,4.0902 194.1708,4.9702 195.2538,4.9702 L195.2538,4.9702 Z" id="Fill-89"></path>
                    <path d="M216.018,7.4902 C216.018,6.5012 215.216,5.7002 214.228,5.7002 L208.714,5.7002 C207.727,5.7002 206.926,6.5012 206.926,7.4902 L206.931,14.7142 C206.931,15.1452 207.281,15.4962 207.711,15.4962 C208.142,15.4962 208.493,15.1452 208.493,14.7142 L208.493,8.1112 L208.824,8.1112 L208.824,25.7712 C208.824,26.4172 209.346,26.9412 209.995,26.9412 C210.64,26.9412 211.164,26.4172 211.164,25.7712 L211.164,16.1002 L211.804,16.1002 L211.804,25.7682 C211.804,26.4162 212.329,26.9412 212.976,26.9412 C213.622,26.9412 214.146,26.4162 214.146,25.7682 L214.146,8.1112 L214.459,8.1112 L214.459,14.6872 C214.459,15.1202 214.81,15.4712 215.242,15.4712 C215.674,15.4712 216.023,15.1202 216.023,14.6872 L216.018,7.4902 Z M211.534,4.9702 C212.619,4.9702 213.498,4.0902 213.498,3.0072 C213.498,1.9242 212.619,1.0452 211.534,1.0452 C210.451,1.0452 209.573,1.9242 209.573,3.0072 C209.573,4.0902 210.451,4.9702 211.534,4.9702 L211.534,4.9702 Z" id="Fill-91"></path>
                    <path d="M232.2983,7.4902 C232.2983,6.5012 231.4963,5.7002 230.5083,5.7002 L224.9943,5.7002 C224.0073,5.7002 223.2063,6.5012 223.2063,7.4902 L223.2113,14.7142 C223.2113,15.1452 223.5613,15.4962 223.9913,15.4962 C224.4223,15.4962 224.7733,15.1452 224.7733,14.7142 L224.7733,8.1112 L225.1043,8.1112 L225.1043,25.7712 C225.1043,26.4172 225.6263,26.9412 226.2753,26.9412 C226.9203,26.9412 227.4443,26.4172 227.4443,25.7712 L227.4443,16.1002 L228.0843,16.1002 L228.0843,25.7682 C228.0843,26.4162 228.6093,26.9412 229.2563,26.9412 C229.9023,26.9412 230.4263,26.4162 230.4263,25.7682 L230.4263,8.1112 L230.7393,8.1112 L230.7393,14.6872 C230.7393,15.1202 231.0903,15.4712 231.5223,15.4712 C231.9543,15.4712 232.3033,15.1202 232.3033,14.6872 L232.2983,7.4902 Z M227.8143,4.9702 C228.8993,4.9702 229.7773,4.0902 229.7773,3.0072 C229.7773,1.9242 228.8993,1.0452 227.8143,1.0452 C226.7313,1.0452 225.8533,1.9242 225.8533,3.0072 C225.8533,4.0902 226.7313,4.9702 227.8143,4.9702 L227.8143,4.9702 Z" id="Fill-93"></path>
                    <path d="M248.5786,7.4902 C248.5786,6.5012 247.7766,5.7002 246.7886,5.7002 L241.2746,5.7002 C240.2876,5.7002 239.4866,6.5012 239.4866,7.4902 L239.4916,14.7142 C239.4916,15.1452 239.8416,15.4962 240.2716,15.4962 C240.7026,15.4962 241.0536,15.1452 241.0536,14.7142 L241.0536,8.1112 L241.3846,8.1112 L241.3846,25.7712 C241.3846,26.4172 241.9066,26.9412 242.5556,26.9412 C243.2006,26.9412 243.7246,26.4172 243.7246,25.7712 L243.7246,16.1002 L244.3646,16.1002 L244.3646,25.7682 C244.3646,26.4162 244.8896,26.9412 245.5366,26.9412 C246.1826,26.9412 246.7066,26.4162 246.7066,25.7682 L246.7066,8.1112 L247.0196,8.1112 L247.0196,14.6872 C247.0196,15.1202 247.3706,15.4712 247.8026,15.4712 C248.2346,15.4712 248.5836,15.1202 248.5836,14.6872 L248.5786,7.4902 Z M244.0946,4.9702 C245.1796,4.9702 246.0576,4.0902 246.0576,3.0072 C246.0576,1.9242 245.1796,1.0452 244.0946,1.0452 C243.0116,1.0452 242.1336,1.9242 242.1336,3.0072 C242.1336,4.0902 243.0116,4.9702 244.0946,4.9702 L244.0946,4.9702 Z" id="Fill-95"></path>
                    <path d="M264.8589,7.4902 C264.8589,6.5012 264.0569,5.7002 263.0689,5.7002 L257.5549,5.7002 C256.5679,5.7002 255.7669,6.5012 255.7669,7.4902 L255.7719,14.7142 C255.7719,15.1452 256.1219,15.4962 256.5519,15.4962 C256.9829,15.4962 257.3339,15.1452 257.3339,14.7142 L257.3339,8.1112 L257.6649,8.1112 L257.6649,25.7712 C257.6649,26.4172 258.1869,26.9412 258.8359,26.9412 C259.4809,26.9412 260.0049,26.4172 260.0049,25.7712 L260.0049,16.1002 L260.6449,16.1002 L260.6449,25.7682 C260.6449,26.4162 261.1699,26.9412 261.8169,26.9412 C262.4629,26.9412 262.9869,26.4162 262.9869,25.7682 L262.9869,8.1112 L263.2999,8.1112 L263.2999,14.6872 C263.2999,15.1202 263.6509,15.4712 264.0829,15.4712 C264.5149,15.4712 264.8639,15.1202 264.8639,14.6872 L264.8589,7.4902 Z M260.3749,4.9702 C261.4589,4.9702 262.3379,4.0902 262.3379,3.0072 C262.3379,1.9242 261.4589,1.0452 260.3749,1.0452 C259.2919,1.0452 258.4139,1.9242 258.4139,3.0072 C258.4139,4.0902 259.2919,4.9702 260.3749,4.9702 L260.3749,4.9702 Z" id="Fill-97"></path>
                    <path d="M281.1391,7.4902 C281.1391,6.5012 280.3371,5.7002 279.3491,5.7002 L273.8351,5.7002 C272.8481,5.7002 272.0471,6.5012 272.0471,7.4902 L272.0521,14.7142 C272.0521,15.1452 272.4021,15.4962 272.8321,15.4962 C273.2631,15.4962 273.6141,15.1452 273.6141,14.7142 L273.6141,8.1112 L273.9451,8.1112 L273.9451,25.7712 C273.9451,26.4172 274.4671,26.9412 275.1161,26.9412 C275.7611,26.9412 276.2861,26.4172 276.2861,25.7712 L276.2861,16.1002 L276.9251,16.1002 L276.9251,25.7682 C276.9251,26.4162 277.4501,26.9412 278.0971,26.9412 C278.7431,26.9412 279.2671,26.4162 279.2671,25.7682 L279.2671,8.1112 L279.5801,8.1112 L279.5801,14.6872 C279.5801,15.1202 279.9311,15.4712 280.3631,15.4712 C280.7951,15.4712 281.1441,15.1202 281.1441,14.6872 L281.1391,7.4902 Z M276.6551,4.9702 C277.7401,4.9702 278.6181,4.0902 278.6181,3.0072 C278.6181,1.9242 277.7401,1.0452 276.6551,1.0452 C275.5721,1.0452 274.6941,1.9242 274.6941,3.0072 C274.6941,4.0902 275.5721,4.9702 276.6551,4.9702 L276.6551,4.9702 Z" id="Fill-99"></path>
                    <path d="M297.4199,7.4902 C297.4199,6.5012 296.6169,5.7002 295.6289,5.7002 L290.1159,5.7002 C289.1279,5.7002 288.3279,6.5012 288.3279,7.4902 L288.3329,14.7142 C288.3329,15.1452 288.6819,15.4962 289.1129,15.4962 C289.5439,15.4962 289.8939,15.1452 289.8939,14.7142 L289.8939,8.1112 L290.2249,8.1112 L290.2249,25.7712 C290.2249,26.4172 290.7479,26.9412 291.3959,26.9412 C292.0409,26.9412 292.5669,26.4172 292.5669,25.7712 L292.5669,16.1002 L293.2049,16.1002 L293.2049,25.7682 C293.2049,26.4162 293.7299,26.9412 294.3769,26.9412 C295.0239,26.9412 295.5469,26.4162 295.5469,25.7682 L295.5469,8.1112 L295.8609,8.1112 L295.8609,14.6872 C295.8609,15.1202 296.2109,15.4712 296.6429,15.4712 C297.0759,15.4712 297.4239,15.1202 297.4239,14.6872 L297.4199,7.4902 Z M292.9359,4.9702 C294.0199,4.9702 294.8989,4.0902 294.8989,3.0072 C294.8989,1.9242 294.0199,1.0452 292.9359,1.0452 C291.8519,1.0452 290.9739,1.9242 290.9739,3.0072 C290.9739,4.0902 291.8519,4.9702 292.9359,4.9702 L292.9359,4.9702 Z" id="Fill-101"></path>
                    <path d="M199.7378,36.1865 C199.7378,35.1975 198.9358,34.3965 197.9478,34.3965 L192.4338,34.3965 C191.4468,34.3965 190.6458,35.1975 190.6458,36.1865 L190.6508,43.4105 C190.6508,43.8415 191.0008,44.1925 191.4308,44.1925 C191.8618,44.1925 192.2128,43.8415 192.2128,43.4105 L192.2128,36.8075 L192.5438,36.8075 L192.5438,54.4675 C192.5438,55.1135 193.0658,55.6375 193.7148,55.6375 C194.3598,55.6375 194.8838,55.1135 194.8838,54.4675 L194.8838,44.7965 L195.5238,44.7965 L195.5238,54.4645 C195.5238,55.1125 196.0488,55.6375 196.6958,55.6375 C197.3418,55.6375 197.8658,55.1125 197.8658,54.4645 L197.8658,36.8075 L198.1788,36.8075 L198.1788,43.3835 C198.1788,43.8165 198.5298,44.1665 198.9618,44.1665 C199.3938,44.1665 199.7428,43.8165 199.7428,43.3835 L199.7378,36.1865 Z M195.2538,33.6665 C196.3378,33.6665 197.2178,32.7865 197.2178,31.7035 C197.2178,30.6205 196.3378,29.7415 195.2538,29.7415 C194.1708,29.7415 193.2928,30.6205 193.2928,31.7035 C193.2928,32.7865 194.1708,33.6665 195.2538,33.6665 L195.2538,33.6665 Z" id="Fill-103"></path>
                    <path d="M216.018,36.1865 C216.018,35.1975 215.216,34.3965 214.228,34.3965 L208.714,34.3965 C207.727,34.3965 206.926,35.1975 206.926,36.1865 L206.931,43.4105 C206.931,43.8415 207.281,44.1925 207.711,44.1925 C208.142,44.1925 208.493,43.8415 208.493,43.4105 L208.493,36.8075 L208.824,36.8075 L208.824,54.4675 C208.824,55.1135 209.346,55.6375 209.995,55.6375 C210.64,55.6375 211.164,55.1135 211.164,54.4675 L211.164,44.7965 L211.804,44.7965 L211.804,54.4645 C211.804,55.1125 212.329,55.6375 212.976,55.6375 C213.622,55.6375 214.146,55.1125 214.146,54.4645 L214.146,36.8075 L214.459,36.8075 L214.459,43.3835 C214.459,43.8165 214.81,44.1665 215.242,44.1665 C215.674,44.1665 216.023,43.8165 216.023,43.3835 L216.018,36.1865 Z M211.534,33.6665 C212.619,33.6665 213.498,32.7865 213.498,31.7035 C213.498,30.6205 212.619,29.7415 211.534,29.7415 C210.451,29.7415 209.573,30.6205 209.573,31.7035 C209.573,32.7865 210.451,33.6665 211.534,33.6665 L211.534,33.6665 Z" id="Fill-105"></path>
                    <path d="M232.2983,36.1865 C232.2983,35.1975 231.4963,34.3965 230.5083,34.3965 L224.9943,34.3965 C224.0073,34.3965 223.2063,35.1975 223.2063,36.1865 L223.2113,43.4105 C223.2113,43.8415 223.5613,44.1925 223.9913,44.1925 C224.4223,44.1925 224.7733,43.8415 224.7733,43.4105 L224.7733,36.8075 L225.1043,36.8075 L225.1043,54.4675 C225.1043,55.1135 225.6263,55.6375 226.2753,55.6375 C226.9203,55.6375 227.4443,55.1135 227.4443,54.4675 L227.4443,44.7965 L228.0843,44.7965 L228.0843,54.4645 C228.0843,55.1125 228.6093,55.6375 229.2563,55.6375 C229.9023,55.6375 230.4263,55.1125 230.4263,54.4645 L230.4263,36.8075 L230.7393,36.8075 L230.7393,43.3835 C230.7393,43.8165 231.0903,44.1665 231.5223,44.1665 C231.9543,44.1665 232.3033,43.8165 232.3033,43.3835 L232.2983,36.1865 Z M227.8143,33.6665 C228.8993,33.6665 229.7773,32.7865 229.7773,31.7035 C229.7773,30.6205 228.8993,29.7415 227.8143,29.7415 C226.7313,29.7415 225.8533,30.6205 225.8533,31.7035 C225.8533,32.7865 226.7313,33.6665 227.8143,33.6665 L227.8143,33.6665 Z" id="Fill-107"></path>
                    <path d="M248.5786,36.1865 C248.5786,35.1975 247.7766,34.3965 246.7886,34.3965 L241.2746,34.3965 C240.2876,34.3965 239.4866,35.1975 239.4866,36.1865 L239.4916,43.4105 C239.4916,43.8415 239.8416,44.1925 240.2716,44.1925 C240.7026,44.1925 241.0536,43.8415 241.0536,43.4105 L241.0536,36.8075 L241.3846,36.8075 L241.3846,54.4675 C241.3846,55.1135 241.9066,55.6375 242.5556,55.6375 C243.2006,55.6375 243.7246,55.1135 243.7246,54.4675 L243.7246,44.7965 L244.3646,44.7965 L244.3646,54.4645 C244.3646,55.1125 244.8896,55.6375 245.5366,55.6375 C246.1826,55.6375 246.7066,55.1125 246.7066,54.4645 L246.7066,36.8075 L247.0196,36.8075 L247.0196,43.3835 C247.0196,43.8165 247.3706,44.1665 247.8026,44.1665 C248.2346,44.1665 248.5836,43.8165 248.5836,43.3835 L248.5786,36.1865 Z M244.0946,33.6665 C245.1796,33.6665 246.0576,32.7865 246.0576,31.7035 C246.0576,30.6205 245.1796,29.7415 244.0946,29.7415 C243.0116,29.7415 242.1336,30.6205 242.1336,31.7035 C242.1336,32.7865 243.0116,33.6665 244.0946,33.6665 L244.0946,33.6665 Z" id="Fill-109"></path>
                    <path d="M264.8589,36.1865 C264.8589,35.1975 264.0569,34.3965 263.0689,34.3965 L257.5549,34.3965 C256.5679,34.3965 255.7669,35.1975 255.7669,36.1865 L255.7719,43.4105 C255.7719,43.8415 256.1219,44.1925 256.5519,44.1925 C256.9829,44.1925 257.3339,43.8415 257.3339,43.4105 L257.3339,36.8075 L257.6649,36.8075 L257.6649,54.4675 C257.6649,55.1135 258.1869,55.6375 258.8359,55.6375 C259.4809,55.6375 260.0049,55.1135 260.0049,54.4675 L260.0049,44.7965 L260.6449,44.7965 L260.6449,54.4645 C260.6449,55.1125 261.1699,55.6375 261.8169,55.6375 C262.4629,55.6375 262.9869,55.1125 262.9869,54.4645 L262.9869,36.8075 L263.2999,36.8075 L263.2999,43.3835 C263.2999,43.8165 263.6509,44.1665 264.0829,44.1665 C264.5149,44.1665 264.8639,43.8165 264.8639,43.3835 L264.8589,36.1865 Z M260.3749,33.6665 C261.4589,33.6665 262.3379,32.7865 262.3379,31.7035 C262.3379,30.6205 261.4589,29.7415 260.3749,29.7415 C259.2919,29.7415 258.4139,30.6205 258.4139,31.7035 C258.4139,32.7865 259.2919,33.6665 260.3749,33.6665 L260.3749,33.6665 Z" id="Fill-111"></path>
                    <path d="M281.1391,36.1865 C281.1391,35.1975 280.3371,34.3965 279.3491,34.3965 L273.8351,34.3965 C272.8481,34.3965 272.0471,35.1975 272.0471,36.1865 L272.0521,43.4105 C272.0521,43.8415 272.4021,44.1925 272.8321,44.1925 C273.2631,44.1925 273.6141,43.8415 273.6141,43.4105 L273.6141,36.8075 L273.9451,36.8075 L273.9451,54.4675 C273.9451,55.1135 274.4671,55.6375 275.1161,55.6375 C275.7611,55.6375 276.2861,55.1135 276.2861,54.4675 L276.2861,44.7965 L276.9251,44.7965 L276.9251,54.4645 C276.9251,55.1125 277.4501,55.6375 278.0971,55.6375 C278.7431,55.6375 279.2671,55.1125 279.2671,54.4645 L279.2671,36.8075 L279.5801,36.8075 L279.5801,43.3835 C279.5801,43.8165 279.9311,44.1665 280.3631,44.1665 C280.7951,44.1665 281.1441,43.8165 281.1441,43.3835 L281.1391,36.1865 Z M276.6551,33.6665 C277.7401,33.6665 278.6181,32.7865 278.6181,31.7035 C278.6181,30.6205 277.7401,29.7415 276.6551,29.7415 C275.5721,29.7415 274.6941,30.6205 274.6941,31.7035 C274.6941,32.7865 275.5721,33.6665 276.6551,33.6665 L276.6551,33.6665 Z" id="Fill-113"></path>
                    <path d="M297.4199,36.1865 C297.4199,35.1975 296.6169,34.3965 295.6289,34.3965 L290.1159,34.3965 C289.1279,34.3965 288.3279,35.1975 288.3279,36.1865 L288.3329,43.4105 C288.3329,43.8415 288.6819,44.1925 289.1129,44.1925 C289.5439,44.1925 289.8939,43.8415 289.8939,43.4105 L289.8939,36.8075 L290.2249,36.8075 L290.2249,54.4675 C290.2249,55.1135 290.7479,55.6375 291.3959,55.6375 C292.0409,55.6375 292.5669,55.1135 292.5669,54.4675 L292.5669,44.7965 L293.2049,44.7965 L293.2049,54.4645 C293.2049,55.1125 293.7299,55.6375 294.3769,55.6375 C295.0239,55.6375 295.5469,55.1125 295.5469,54.4645 L295.5469,36.8075 L295.8609,36.8075 L295.8609,43.3835 C295.8609,43.8165 296.2109,44.1665 296.6429,44.1665 C297.0759,44.1665 297.4239,43.8165 297.4239,43.3835 L297.4199,36.1865 Z M292.9359,33.6665 C294.0199,33.6665 294.8989,32.7865 294.8989,31.7035 C294.8989,30.6205 294.0199,29.7415 292.9359,29.7415 C291.8519,29.7415 290.9739,30.6205 290.9739,31.7035 C290.9739,32.7865 291.8519,33.6665 292.9359,33.6665 L292.9359,33.6665 Z" id="Fill-115"></path>
                    <path d="M199.7378,64.456 C199.7378,63.467 198.9358,62.666 197.9478,62.666 L192.4338,62.666 C191.4468,62.666 190.6458,63.467 190.6458,64.456 L190.6508,71.68 C190.6508,72.111 191.0008,72.462 191.4308,72.462 C191.8618,72.462 192.2128,72.111 192.2128,71.68 L192.2128,65.077 L192.5438,65.077 L192.5438,82.737 C192.5438,83.383 193.0658,83.907 193.7148,83.907 C194.3598,83.907 194.8838,83.383 194.8838,82.737 L194.8838,73.066 L195.5238,73.066 L195.5238,82.734 C195.5238,83.382 196.0488,83.907 196.6958,83.907 C197.3418,83.907 197.8658,83.382 197.8658,82.734 L197.8658,65.077 L198.1788,65.077 L198.1788,71.653 C198.1788,72.086 198.5298,72.436 198.9618,72.436 C199.3938,72.436 199.7428,72.086 199.7428,71.653 L199.7378,64.456 Z M195.2538,61.936 C196.3378,61.936 197.2178,61.056 197.2178,59.973 C197.2178,58.89 196.3378,58.011 195.2538,58.011 C194.1708,58.011 193.2928,58.89 193.2928,59.973 C193.2928,61.056 194.1708,61.936 195.2538,61.936 L195.2538,61.936 Z" id="Fill-117"></path>
                    <path d="M216.018,64.456 C216.018,63.467 215.216,62.666 214.228,62.666 L208.714,62.666 C207.727,62.666 206.926,63.467 206.926,64.456 L206.931,71.68 C206.931,72.111 207.281,72.462 207.711,72.462 C208.142,72.462 208.493,72.111 208.493,71.68 L208.493,65.077 L208.824,65.077 L208.824,82.737 C208.824,83.383 209.346,83.907 209.995,83.907 C210.64,83.907 211.164,83.383 211.164,82.737 L211.164,73.066 L211.804,73.066 L211.804,82.734 C211.804,83.382 212.329,83.907 212.976,83.907 C213.622,83.907 214.146,83.382 214.146,82.734 L214.146,65.077 L214.459,65.077 L214.459,71.653 C214.459,72.086 214.81,72.436 215.242,72.436 C215.674,72.436 216.023,72.086 216.023,71.653 L216.018,64.456 Z M211.534,61.936 C212.619,61.936 213.498,61.056 213.498,59.973 C213.498,58.89 212.619,58.011 211.534,58.011 C210.451,58.011 209.573,58.89 209.573,59.973 C209.573,61.056 210.451,61.936 211.534,61.936 L211.534,61.936 Z" id="Fill-119"></path>
                    <path d="M232.2983,64.456 C232.2983,63.467 231.4963,62.666 230.5083,62.666 L224.9943,62.666 C224.0073,62.666 223.2063,63.467 223.2063,64.456 L223.2113,71.68 C223.2113,72.111 223.5613,72.462 223.9913,72.462 C224.4223,72.462 224.7733,72.111 224.7733,71.68 L224.7733,65.077 L225.1043,65.077 L225.1043,82.737 C225.1043,83.383 225.6263,83.907 226.2753,83.907 C226.9203,83.907 227.4443,83.383 227.4443,82.737 L227.4443,73.066 L228.0843,73.066 L228.0843,82.734 C228.0843,83.382 228.6093,83.907 229.2563,83.907 C229.9023,83.907 230.4263,83.382 230.4263,82.734 L230.4263,65.077 L230.7393,65.077 L230.7393,71.653 C230.7393,72.086 231.0903,72.436 231.5223,72.436 C231.9543,72.436 232.3033,72.086 232.3033,71.653 L232.2983,64.456 Z M227.8143,61.936 C228.8993,61.936 229.7773,61.056 229.7773,59.973 C229.7773,58.89 228.8993,58.011 227.8143,58.011 C226.7313,58.011 225.8533,58.89 225.8533,59.973 C225.8533,61.056 226.7313,61.936 227.8143,61.936 L227.8143,61.936 Z" id="Fill-121"></path>
                    <path d="M339.9492,21.4951 C339.9492,18.3211 337.3772,15.7521 334.2062,15.7521 L316.5142,15.7521 C313.3462,15.7521 310.7772,18.3211 310.7772,21.4951 L310.7932,44.6741 C310.7932,46.0581 311.9152,47.1831 313.2972,47.1831 C314.6782,47.1831 315.8032,46.0581 315.8032,44.6741 L315.8032,23.4881 L316.8652,23.4881 L316.8652,80.1531 C316.8652,82.2241 318.5422,83.9071 320.6222,83.9071 C322.6932,83.9071 324.3762,82.2241 324.3762,80.1531 L324.3762,49.1231 L326.4282,49.1231 L326.4282,80.1431 C326.4282,82.2211 328.1112,83.9071 330.1882,83.9071 C332.2602,83.9071 333.9422,82.2211 333.9422,80.1431 L333.9422,23.4881 L334.9482,23.4881 L334.9482,44.5891 C334.9482,45.9761 336.0732,47.1011 337.4582,47.1011 C338.8462,47.1011 339.9652,45.9761 339.9652,44.5891 L339.9492,21.4951 Z M325.5602,13.4081 C329.0422,13.4081 331.8622,10.5851 331.8622,7.1101 C331.8622,3.6351 329.0422,0.8151 325.5602,0.8151 C322.0862,0.8151 319.2682,3.6351 319.2682,7.1101 C319.2682,10.5851 322.0862,13.4081 325.5602,13.4081 L325.5602,13.4081 Z" id="Fill-131"></path>
                </g>
            </g>
        </g>
    </g>
</svg>