<?xml version="1.0" encoding="UTF-8" standalone="no"?>
<svg width="76px" height="17px" viewBox="0 0 76 17" version="1.1" xmlns="http://www.w3.org/2000/svg" xmlns:xlink="http://www.w3.org/1999/xlink" xmlns:sketch="http://www.bohemiancoding.com/sketch/ns">
    <!-- Generator: Sketch 3.4.1 (15681) - http://www.bohemiancoding.com/sketch -->
    <title>GOV.AU</title>
    <desc>Created with Sketch.</desc>
    <defs></defs>
    <g id="Templates" stroke="none" stroke-width="1" fill="none" fill-rule="evenodd" sketch:type="MSPage">
        <g id="Mobile-Portrait-HOME" sketch:type="MSArtboardGroup" transform="translate(-151.000000, -13.000000)" fill="#FFFFFF">
            <path d="M158.952202,21.0830078 L164.742241,21.0830078 L164.742241,28.2480469 C163.224005,28.8925813 161.516014,29.2148438 159.618218,29.2148438 C157.140341,29.2148438 155.240783,28.5148182 153.919488,27.1147461 C152.598192,25.714674 151.937554,23.7327602 151.937554,21.1689453 C151.937554,19.5719321 152.265187,18.1557679 152.920464,16.9204102 C153.575741,15.6850524 154.513882,14.7307976 155.734917,14.0576172 C156.955952,13.3844367 158.357793,13.0478516 159.940484,13.0478516 C161.652081,13.0478516 163.188198,13.3629526 164.548882,13.9931641 L164.108452,14.9814453 C162.747768,14.3512338 161.336975,14.0361328 159.87603,14.0361328 C157.806359,14.0361328 156.164611,14.6752866 154.950738,15.9536133 C153.736864,17.23194 153.129937,18.9560438 153.129937,21.1259766 C153.129937,23.4892696 153.706428,25.2670839 154.859429,26.4594727 C156.012429,27.6518614 157.706097,28.2480469 159.940484,28.2480469 C161.387105,28.2480469 162.615283,28.0439474 163.625054,27.6357422 L163.625054,22.1142578 L158.952202,22.1142578 L158.952202,21.0830078 Z M181.895884,21.1259766 C181.895884,23.6181765 181.272843,25.5893482 180.026743,27.0395508 C178.780643,28.4897533 177.06191,29.2148438 174.870493,29.2148438 C172.686238,29.2148438 170.971085,28.4897533 169.724985,27.0395508 C168.478885,25.5893482 167.855845,23.6110151 167.855845,21.1044922 C167.855845,18.6051307 168.484256,16.6375397 169.741099,15.2016602 C170.997941,13.7657806 172.714883,13.0478516 174.891978,13.0478516 C177.083395,13.0478516 178.798547,13.7693613 180.037485,15.2124023 C181.276424,16.6554434 181.895884,18.6266151 181.895884,21.1259766 L181.895884,21.1259766 Z M169.048228,21.1259766 C169.048228,23.3746857 169.549525,25.1131123 170.552134,26.3413086 C171.554743,27.5695048 172.994182,28.1835938 174.870493,28.1835938 C176.761128,28.1835938 178.205937,27.5748759 179.204966,26.3574219 C180.203994,25.1399679 180.703501,23.3961702 180.703501,21.1259766 C180.703501,18.8629444 180.203994,17.1280985 179.204966,15.9213867 C178.205937,14.714675 176.768289,14.1113281 174.891978,14.1113281 C173.022828,14.1113281 171.581599,14.720046 170.568247,15.9375 C169.554896,17.154954 169.048228,18.8844289 169.048228,21.1259766 L169.048228,21.1259766 Z M194.580776,13.2949219 L195.773159,13.2949219 L189.897183,29 L188.930386,29 L183.075894,13.2949219 L184.246792,13.2949219 L188.199917,23.9833984 C188.801482,25.5947346 189.206101,26.805009 189.413784,27.6142578 C189.557014,27.0771458 189.839889,26.2428442 190.262417,25.1113281 L194.580776,13.2949219 Z M195.41769,28.1621094 C195.41769,27.4602829 195.704146,27.109375 196.277065,27.109375 C196.864308,27.109375 197.157925,27.4602829 197.157925,28.1621094 C197.157925,28.8639358 196.864308,29.2148438 196.277065,29.2148438 C195.704146,29.2148438 195.41769,28.8639358 195.41769,28.1621094 L195.41769,28.1621094 Z M209.695034,23.4570312 L203.314175,23.4570312 L201.122769,29 L199.908901,29 L206.225308,13.2304688 L206.92355,13.2304688 L213.11105,29 L211.875698,29 L209.695034,23.4570312 Z M203.711636,22.46875 L209.3298,22.46875 L207.192104,16.8076172 C207.013067,16.3636046 206.798225,15.7477253 206.547573,14.9599609 C206.354213,15.6474644 206.142952,16.270505 205.913784,16.8291016 L203.711636,22.46875 Z M226.891645,13.2949219 L226.891645,23.4570312 C226.891645,25.2617278 226.368864,26.672521 225.323286,27.6894531 C224.277708,28.7063853 222.820366,29.2148438 220.951216,29.2148438 C219.132196,29.2148438 217.712451,28.7045949 216.691938,27.684082 C215.671425,26.6635691 215.161177,25.2402435 215.161177,23.4140625 L215.161177,13.2949219 L216.267622,13.2949219 L216.267622,23.4570312 C216.267622,24.9681065 216.686563,26.1443643 217.524458,26.9858398 C218.362353,27.8273154 219.547562,28.2480469 221.080122,28.2480469 C222.576874,28.2480469 223.737019,27.8344768 224.560591,27.0073242 C225.384162,26.1801716 225.795942,25.0325594 225.795942,23.5644531 L225.795942,13.2949219 L226.891645,13.2949219 Z" id="GOV.AU" sketch:type="MSShapeGroup"></path>
        </g>
    </g>
</svg>