<?xml version="1.0" encoding="UTF-8" standalone="no"?>
<svg width="58px" height="45px" viewBox="0 0 58 45" version="1.1" xmlns="http://www.w3.org/2000/svg" xmlns:xlink="http://www.w3.org/1999/xlink" xmlns:sketch="http://www.bohemiancoding.com/sketch/ns">
    <!-- Generator: Sketch 3.4.2 (15857) - http://www.bohemiancoding.com/sketch -->
    <title>hat</title>
    <desc>Created with Sketch.</desc>
    <defs></defs>
    <g id="Page-1" stroke="none" stroke-width="1" fill="none" fill-rule="evenodd" sketch:type="MSPage">
        <g id="Holiday" sketch:type="MSArtboardGroup" transform="translate(-41.000000, -142.000000)" stroke="#427FC2" stroke-width="1.6">
            <g id="hat" sketch:type="MSLayerGroup" transform="translate(41.000000, 142.000000)">
                <path d="M28.980388,0.521326206 L-4.79219439e-05,14.7774017 L-4.79219439e-05,16.1064533 L28.980388,30.3628958 L57.9862226,16.0940962 L57.9862226,14.7900034 L28.980388,0.521326206 Z" id="Fill-1" sketch:type="MSShapeGroup"></path>
                <path d="M10.0406056,23.6460651 L10.0406056,32.1736261 L27.512467,40.7684777 L30.4484049,40.7684777 L47.8722246,32.197239 C47.8889972,32.1596786 47.9046917,32.1222405 47.9203861,32.0844354 L47.9203861,23.6459428 L28.980436,32.9628843 L10.0406056,23.6460651 Z" id="Fill-2" sketch:type="MSShapeGroup"></path>
                <path d="M54.9312466,36.6911535 L54.9312466,20.1014382 L52.637343,21.2828174 L52.637343,36.6911535 L51.1426576,41.3413047 L53.4020574,44.4295786 L54.1665322,44.4295786 L56.4258123,41.3413047 L54.9312466,36.6911535 Z" id="Fill-4" sketch:type="MSShapeGroup"></path>
            </g>
        </g>
    </g>
</svg>