<?xml version="1.0" encoding="UTF-8" standalone="no"?>
<svg width="264px" height="236px" viewBox="0 0 264 236" version="1.1" xmlns="http://www.w3.org/2000/svg" xmlns:xlink="http://www.w3.org/1999/xlink" xmlns:sketch="http://www.bohemiancoding.com/sketch/ns">
    <!-- Generator: Sketch 3.4.1 (15681) - http://www.bohemiancoding.com/sketch -->
    <title>map + pop</title>
    <desc>Created with Sketch.</desc>
    <defs></defs>
    <g id="Templates" stroke="none" stroke-width="1" fill="none" fill-rule="evenodd" sketch:type="MSPage">
        <g id="Desktop-HD-HOME" sketch:type="MSArtboardGroup" transform="translate(-155.000000, -1918.000000)">
            <g id="Main-article" sketch:type="MSLayerGroup" transform="translate(0.000000, 80.000000)">
                <g id="map-+-pop" transform="translate(155.000000, 1838.000000)" sketch:type="MSShapeGroup">
                    <path d="M216.693902,215.397161 C212.830185,215.831986 207.02658,211.867026 205.664804,212.240653 C204.091054,212.672257 210.681534,222.576604 208.677412,225.163008 C206.673289,227.749411 214.545251,234.787134 217.268802,235.215517 C219.98593,235.647121 218.983869,232.490614 220.846675,232.632335 C222.709481,232.774055 221.993264,230.764198 222.279109,229.327665 C222.564953,227.894353 224.427759,230.905918 226.00151,230.049152 C227.578471,229.185944 225.574349,223.008208 227.867527,223.008208 C230.154283,223.008208 228.294688,215.545323 227.578471,213.103861 C226.862254,210.655958 220.564042,214.965556 216.693902,215.397161 M151.971021,175.473785 C153.544771,176.910318 158.840922,176.478714 159.701667,174.468856 C160.5592,172.458998 150.554646,174.188635 151.971021,175.473785 M119.747685,5.44110915 C119.46184,3.71791383 109.271006,5.708446 111.442138,7.45096688 C112.874572,8.60083741 120.033529,7.16752541 119.747685,5.44110915 M263.23194,117.890072 C264.381741,117.026864 262.663463,112.430603 261.65819,113.148869 C260.659341,113.867136 260.659341,105.966205 261.375557,102.378093 C262.088563,98.7867611 261.65819,99.2183652 259.798596,101.086502 C257.935789,102.954639 255.931667,97.4951699 255.501294,96.058637 C255.070922,94.6253249 252.922271,90.6023886 250.487776,91.1757134 C248.056493,91.7522591 249.630243,87.7293227 247.340276,88.1609268 C245.047097,88.5925308 244.619937,84.8562569 245.047097,81.4098662 C245.47747,77.9634755 243.473347,80.6948207 242.468074,79.2582877 C241.469225,77.8217548 240.322635,78.9716253 238.745673,79.5417292 C237.171923,80.1214959 236.741551,76.5301635 237.171923,75.0904097 C237.602296,73.6570977 236.886079,71.9306814 234.737428,70.3524278 C232.588778,68.7741741 232.44425,67.4793619 232.588778,65.6112249 C232.733306,63.7463088 220.416303,57.4268523 217.695963,56.8535275 C214.975624,56.2802027 217.268802,53.4071369 216.119001,52.402208 C214.975624,51.3972791 214.545251,47.6642261 214.545251,44.5044978 C214.545251,41.3447696 210.537006,40.3366198 210.681534,37.7566582 C210.822851,35.1670338 209.534945,32.725572 209.820789,29.8557271 C210.106634,26.9826612 205.664804,26.2643948 205.523488,24.6861411 C205.385383,23.1046665 202.947677,24.5411994 200.513182,24.8310828 C198.078687,25.1145242 198.223215,21.6713545 198.509059,18.3666846 C198.794903,15.0620147 197.503786,9.60576628 195.499663,8.02751261 C193.495541,6.44925895 193.351013,0.989789634 192.352163,0.126581506 C191.34689,-0.733405695 188.054862,3.00286829 188.196178,4.86778435 C188.340706,6.73592135 187.913546,8.89072074 186.62564,10.0373703 C185.331311,11.1872409 187.483173,15.6385604 185.761683,17.220035 C184.043405,18.7982886 185.620367,25.1145242 185.189994,28.7058566 C184.762834,32.2939679 184.90415,36.1719627 183.185872,38.6134245 C181.467594,41.0548863 181.181749,44.9361019 177.741981,46.2276932 C174.308637,47.5192844 169.725491,44.7911602 169.866807,42.9230232 C170.011335,41.0548863 166.144407,39.9082366 164.140284,40.1948991 C162.136162,40.4815615 160.989572,37.6117165 157.83886,35.1670338 C154.684937,32.725572 152.256865,35.7435795 151.251592,32.8705137 C150.249531,30.0006687 149.24747,29.5722856 146.954291,27.9875901 C144.667536,26.4093364 145.380541,26.4093364 147.529191,24.8310828 C149.677842,23.2528291 149.24747,21.2397504 148.104092,19.3716134 C146.954291,17.5034765 149.388786,17.9350805 152.256865,16.3536059 C155.118521,14.7785732 152.256865,12.9104362 154.402304,12.0472281 C156.547743,11.1872409 155.263049,9.31910388 152.96987,8.89072074 C150.676692,8.45911667 151.39612,11.1872409 150.535375,11.4706823 C149.677842,11.7605657 148.817097,7.88257095 148.104092,8.02751261 C147.384663,8.16923335 144.667536,11.9022864 143.235102,10.0373703 C141.802668,8.16923335 133.782966,6.59097968 130.629042,6.15937562 C127.481542,5.72777156 126.479481,1.7080561 124.616675,2.42632256 C122.75708,3.14780995 124.902519,4.43618029 127.05117,6.73592135 C129.19982,9.03244147 119.889001,10.6106951 117.171873,9.75070794 C114.451534,8.89072074 117.599034,11.7605657 115.312279,11.615624 C113.0191,11.4706823 112.588728,15.4936187 110.729133,17.5034765 C108.866327,19.5165551 110.154233,20.953088 108.146898,22.2414584 C106.142776,23.5362706 106.001459,24.9728035 108.435954,27.7041486 C110.87045,30.4290519 107.292577,30.5739935 105.140714,28.4191942 C102.995276,26.2643948 100.846625,26.2643948 100.991153,28.7058566 C101.132469,31.1473183 98.4121299,30.0006687 98.8425024,27.2725445 C99.2696631,24.5411994 95.8331068,25.8327907 95.261418,24.254537 C94.6865175,22.6730624 91.6803336,20.0898799 89.8175274,20.2316006 C87.9611447,20.3765423 87.9611447,22.389621 86.0983384,22.389621 C84.2355322,22.389621 83.8051597,23.3945498 84.0910041,25.4044076 C84.3800603,27.4142653 81.2293484,25.2626868 79.077486,25.5493492 C76.9320471,25.8327907 79.077486,28.2742525 77.9341084,28.4191942 C76.787519,28.5609149 76.787519,30.5739935 74.9247128,30.5739935 C73.0619066,30.5739935 73.3509627,34.7354297 73.6400189,36.8934501 C73.9226515,39.0450285 70.7719396,35.8885212 68.9123451,36.461846 C67.0495389,37.0351708 69.3427176,38.9033078 69.9144064,41.3447696 C70.4893069,43.7862314 68.9123451,43.6445106 67.9102838,44.6462186 C66.9082226,45.6543684 65.3312607,41.9180944 65.3312607,39.7665159 C65.3312607,37.6117165 62.8967657,39.6215742 60.3209543,42.3464775 C57.745143,45.0778226 61.1816993,49.2424798 60.0351099,49.9607462 C58.8885206,50.6757918 53.7336861,55.5619363 50.7242905,59.1500477 C47.7213184,62.7381591 41.2753665,60.5898015 39.271244,62.3129968 C37.2671214,64.0361922 35.1184708,62.7381591 33.1111365,64.3228546 C31.1070139,65.9011082 27.3846132,68.9158948 26.9574525,67.0477578 C26.52708,65.1796209 21.3690338,66.6225956 19.2235949,68.9158948 C17.0749443,71.2156359 13.6351762,73.2222727 11.2006812,73.3704353 C8.76939788,73.512156 8.76939788,77.2452091 7.7673366,78.1084172 C6.76527532,78.9716253 7.05111973,75.0904097 7.05111973,74.0887017 C7.05111973,73.080552 4.75794103,75.8118971 3.75587975,78.8299046 C2.75381847,81.8414703 6.19037478,82.9913408 4.04493589,86.151069 C1.89307352,89.3107973 -0.111049041,92.4673046 2.90155827,96.490241 C5.90453038,100.513177 7.6195968,103.09636 6.62074725,105.106218 C5.61547424,107.116075 3.47003534,101.086502 2.75381847,101.804769 C2.03760159,102.523035 5.4741579,105.106218 4.61662469,106.397809 C3.75587975,107.692621 0.672614268,101.514885 0.0334790282,102.954639 C-0.541421514,104.24623 6.47621918,114.008857 6.62074725,117.600189 C6.76527532,121.191521 12.3472705,124.637912 12.0646379,129.810719 C11.7755817,134.977084 16.9336279,143.309619 17.7911611,144.60121 C18.6486944,145.892802 15.7838268,149.335971 16.3555157,153.213966 C16.9336279,157.091961 15.0708217,158.528494 12.6363267,158.528494 C10.2018316,158.528494 11.6342654,162.554651 14.3513931,162.838093 C17.0749443,163.124755 16.072883,164.996113 19.0790668,167.005971 C22.0852507,169.015828 29.2442077,168.294341 31.6819145,168.294341 C34.1131978,168.294341 34.8326264,164.561288 38.1246546,164.419567 C41.4198946,164.274625 41.1308385,163.266476 42.7045886,161.256618 C44.2815504,159.24676 51.7295636,159.823306 59.3188931,160.25491 C66.9082226,160.686514 70.2034625,158.386773 71.3468402,155.223824 C72.3264193,152.527909 77.7895803,152.353979 79.9382309,150.344121 C82.0868816,148.334263 83.9496878,148.192543 89.531683,148.475984 C95.11689,148.765868 100.271724,145.74786 103.852809,144.314548 C107.430681,142.874794 114.021161,143.45134 117.457718,142.588132 C120.894274,141.724924 121.465963,146.89451 125.332892,146.466126 C129.19982,146.034522 130.918099,147.615997 132.922221,147.471055 C134.926344,147.329335 134.640499,148.904367 136.644622,149.335971 C138.648744,149.770796 138.3629,151.493992 137.078206,153.358908 C135.787089,155.223824 140.081178,155.082103 142.804729,158.818377 C145.525069,162.554651 142.946046,163.124755 144.378479,165.997821 C145.810913,168.870887 146.812974,168.149399 149.677842,164.129684 C152.539498,160.109968 155.69021,162.696372 156.120582,159.24676 C156.547743,155.80037 159.56035,151.780654 161.564473,153.503849 C163.568595,155.223824 160.132039,156.087032 158.840922,162.696372 C157.553016,169.29927 155.263049,165.852879 154.832676,167.717795 C154.402304,169.585932 160.845044,170.594082 160.845044,167.147691 C160.845044,163.69808 161.994845,162.119826 164.42934,165.276333 C166.860624,168.439283 162.993695,171.025686 163.568595,172.458998 C164.140284,173.895531 166.860624,172.027394 168.296269,172.172336 C170.843175,172.426789 174.308637,178.060188 173.733736,181.078196 C173.162047,184.089761 172.304514,186.962827 177.170293,189.40751 C182.039283,191.845751 180.179688,192.277355 183.757561,192.277355 C187.335433,192.277355 194.786658,195.150421 196.790781,196.873616 C198.794903,198.59359 203.949738,195.582025 204.951799,192.132413 C205.95386,188.689243 209.676261,191.990692 207.672139,193.140563 C205.664804,194.287213 208.677412,197.018558 208.818728,195.150421 C208.960044,193.282284 209.820789,191.70403 210.537006,193.858829 C211.253223,196.010408 213.832246,196.010408 214.834307,197.736824 C215.836369,199.460019 216.982958,200.751611 216.982958,199.315078 C216.982958,197.881766 217.554647,196.583733 219.844614,195.723745 C222.134581,194.863758 223.570226,193.282284 226.00151,191.272426 C228.436005,189.262568 238.459829,188.830964 239.465102,188.830964 C240.463952,188.830964 241.038852,180.214987 241.610541,175.760447 C242.185442,171.309128 245.907842,170.594082 246.476319,165.852879 C247.054432,161.114897 252.064738,152.353979 253.352644,151.925596 C254.643761,151.493992 257.078256,150.2024 257.219572,147.471055 C257.364101,144.742931 260.659341,141.724924 260.659341,138.426696 C260.659341,135.122026 262.522147,131.244031 262.233091,130.242323 C261.947246,129.234173 260.797445,126.074445 262.949307,123.777925 C265.094746,121.478184 262.088563,118.75006 263.23194,117.890072" id="map" fill="#427FC2"></path>
                    <path d="M70.7890625,69.9296875 L71.984375,69.9296875 C73.1015681,69.9296875 73.9374972,69.7089866 74.4921875,69.2675781 C75.0468778,68.8261697 75.3242188,68.183598 75.3242188,67.3398438 C75.3242188,66.488277 75.0917992,65.859377 74.6269531,65.453125 C74.1621071,65.046873 73.4335987,64.84375 72.4414062,64.84375 L70.7890625,64.84375 L70.7890625,69.9296875 Z M78.9921875,67.2109375 C78.9921875,69.0546967 78.4160214,70.4648389 77.2636719,71.4414062 C76.1113224,72.4179736 74.4726669,72.90625 72.3476562,72.90625 L70.7890625,72.90625 L70.7890625,79 L67.15625,79 L67.15625,61.8671875 L72.6289062,61.8671875 C74.7070416,61.8671875 76.287104,62.3144487 77.3691406,63.2089844 C78.4511773,64.1035201 78.9921875,65.4374911 78.9921875,67.2109375 L78.9921875,67.2109375 Z M84.9429688,72.4257812 C84.9429688,73.7226627 85.1558572,74.7031217 85.5816406,75.3671875 C86.007424,76.0312533 86.7007764,76.3632812 87.6617188,76.3632812 C88.6148485,76.3632812 89.3003885,76.0332064 89.7183594,75.3730469 C90.1363302,74.7128873 90.3453125,73.7304753 90.3453125,72.4257812 C90.3453125,71.1288998 90.1343771,70.1562532 89.7125,69.5078125 C89.2906229,68.8593718 88.5992236,68.5351562 87.6382813,68.5351562 C86.6851515,68.5351562 85.9976584,68.8574187 85.5757813,69.5019531 C85.1539041,70.1464876 84.9429688,71.1210872 84.9429688,72.4257812 L84.9429688,72.4257812 Z M94.0015625,72.4257812 C94.0015625,74.5586044 93.4390681,76.2265565 92.3140625,77.4296875 C91.1890569,78.6328185 89.6226663,79.234375 87.6148438,79.234375 C86.357025,79.234375 85.2476611,78.9589871 84.2867188,78.4082031 C83.3257764,77.8574191 82.5875026,77.0664114 82.071875,76.0351562 C81.5562474,75.0039011 81.2984375,73.8007881 81.2984375,72.4257812 C81.2984375,70.2851455 81.8570257,68.6210997 82.9742188,67.4335938 C84.0914118,66.2460878 85.6617086,65.6523438 87.6851563,65.6523438 C88.942975,65.6523438 90.0523389,65.9257785 91.0132813,66.4726562 C91.9742236,67.019534 92.7124974,67.8046824 93.228125,68.828125 C93.7437526,69.8515676 94.0015625,71.0507744 94.0015625,72.4257812 L94.0015625,72.4257812 Z M104.3,79.234375 C102.76093,79.234375 101.553911,78.6757868 100.678906,77.5585938 L100.491406,77.5585938 C100.616407,78.6523492 100.678906,79.2851554 100.678906,79.4570312 L100.678906,84.765625 L97.1046875,84.765625 L97.1046875,65.8984375 L100.010937,65.8984375 L100.514844,67.5976562 L100.678906,67.5976562 C101.514848,66.3007748 102.753117,65.6523438 104.39375,65.6523438 C105.940633,65.6523438 107.151558,66.249994 108.026562,67.4453125 C108.901567,68.640631 109.339062,70.3007706 109.339062,72.4257812 C109.339062,73.8242257 109.133986,75.0390573 108.723828,76.0703125 C108.31367,77.1015677 107.729691,77.8867161 106.971875,78.4257812 C106.214059,78.9648464 105.323443,79.234375 104.3,79.234375 L104.3,79.234375 Z M103.245312,68.5117188 C102.362496,68.5117188 101.717971,68.7832004 101.311719,69.3261719 C100.905467,69.8691433 100.694531,70.7656188 100.678906,72.015625 L100.678906,72.4023438 C100.678906,73.8086008 100.887889,74.8164032 101.305859,75.4257812 C101.72383,76.0351593 102.385933,76.3398438 103.292187,76.3398438 C104.893758,76.3398438 105.694531,75.0195445 105.694531,72.3789062 C105.694531,71.0898373 105.497268,70.1230501 105.102734,69.4785156 C104.708201,68.8339812 104.089067,68.5117188 103.245312,68.5117188 L103.245312,68.5117188 Z M121.723438,79 L121.242969,77.3242188 L121.055469,77.3242188 C120.672654,77.9335968 120.129691,78.4042952 119.426563,78.7363281 C118.723434,79.068361 117.922661,79.234375 117.024219,79.234375 C115.485149,79.234375 114.325004,78.8222697 113.54375,77.9980469 C112.762496,77.173824 112.371875,75.988289 112.371875,74.4414062 L112.371875,65.8984375 L115.946094,65.8984375 L115.946094,73.5507812 C115.946094,74.4960985 116.114061,75.2050758 116.45,75.6777344 C116.785939,76.150393 117.32109,76.3867188 118.055469,76.3867188 C119.055474,76.3867188 119.778123,76.0527377 120.223438,75.3847656 C120.668752,74.7167935 120.891406,73.6093827 120.891406,72.0625 L120.891406,65.8984375 L124.465625,65.8984375 L124.465625,79 L121.723438,79 Z M131.939844,79 L128.365625,79 L128.365625,60.765625 L131.939844,60.765625 L131.939844,79 Z M144.160156,79 L143.46875,77.21875 L143.375,77.21875 C142.773434,77.9765663 142.1543,78.5019517 141.517578,78.7949219 C140.880856,79.0878921 140.050786,79.234375 139.027344,79.234375 C137.769525,79.234375 136.7793,78.8750036 136.056641,78.15625 C135.333981,77.4374964 134.972656,76.4140691 134.972656,75.0859375 C134.972656,73.6953055 135.45898,72.6699252 136.431641,72.0097656 C137.404302,71.3496061 138.871084,70.9843754 140.832031,70.9140625 L143.105469,70.84375 L143.105469,70.2695312 C143.105469,68.9413996 142.425788,68.2773438 141.066406,68.2773438 C140.019526,68.2773438 138.78907,68.5937468 137.375,69.2265625 L136.191406,66.8125 C137.699226,66.0234336 139.371085,65.6289062 141.207031,65.6289062 C142.964853,65.6289062 144.312495,66.0117149 145.25,66.7773438 C146.187505,67.5429726 146.65625,68.7070234 146.65625,70.2695312 L146.65625,79 L144.160156,79 Z M143.105469,72.9296875 L141.722656,72.9765625 C140.683589,73.0078127 139.910159,73.1953108 139.402344,73.5390625 C138.894529,73.8828142 138.640625,74.4062465 138.640625,75.109375 C138.640625,76.1171925 139.218744,76.6210938 140.375,76.6210938 C141.203129,76.6210938 141.865232,76.3828149 142.361328,75.90625 C142.857424,75.4296851 143.105469,74.7968789 143.105469,74.0078125 L143.105469,72.9296875 Z M156.005469,76.3867188 C156.630472,76.3867188 157.380464,76.2500014 158.255469,75.9765625 L158.255469,78.6367188 C157.364839,79.0351582 156.2711,79.234375 154.974219,79.234375 C153.544524,79.234375 152.503519,78.8730505 151.851172,78.1503906 C151.198825,77.4277308 150.872656,76.3437572 150.872656,74.8984375 L150.872656,68.5820312 L149.161719,68.5820312 L149.161719,67.0703125 L151.130469,65.875 L152.161719,63.109375 L154.446875,63.109375 L154.446875,65.8984375 L158.114844,65.8984375 L158.114844,68.5820312 L154.446875,68.5820312 L154.446875,74.8984375 C154.446875,75.4062525 154.589452,75.7812488 154.874609,76.0234375 C155.159767,76.2656262 155.536716,76.3867188 156.005469,76.3867188 L156.005469,76.3867188 Z M160.901563,62.5117188 C160.901563,61.3476504 161.549994,60.765625 162.846875,60.765625 C164.143756,60.765625 164.792188,61.3476504 164.792188,62.5117188 C164.792188,63.066409 164.63008,63.4980453 164.305859,63.8066406 C163.981639,64.1152359 163.495316,64.2695312 162.846875,64.2695312 C161.549994,64.2695312 160.901563,63.6835996 160.901563,62.5117188 L160.901563,62.5117188 Z M164.628125,79 L161.053906,79 L161.053906,65.8984375 L164.628125,65.8984375 L164.628125,79 Z M171.375781,72.4257812 C171.375781,73.7226627 171.58867,74.7031217 172.014453,75.3671875 C172.440237,76.0312533 173.133589,76.3632812 174.094531,76.3632812 C175.047661,76.3632812 175.733201,76.0332064 176.151172,75.3730469 C176.569143,74.7128873 176.778125,73.7304753 176.778125,72.4257812 C176.778125,71.1288998 176.56719,70.1562532 176.145313,69.5078125 C175.723435,68.8593718 175.032036,68.5351562 174.071094,68.5351562 C173.117964,68.5351562 172.430471,68.8574187 172.008594,69.5019531 C171.586717,70.1464876 171.375781,71.1210872 171.375781,72.4257812 L171.375781,72.4257812 Z M180.434375,72.4257812 C180.434375,74.5586044 179.871881,76.2265565 178.746875,77.4296875 C177.621869,78.6328185 176.055479,79.234375 174.047656,79.234375 C172.789837,79.234375 171.680474,78.9589871 170.719531,78.4082031 C169.758589,77.8574191 169.020315,77.0664114 168.504688,76.0351562 C167.98906,75.0039011 167.73125,73.8007881 167.73125,72.4257812 C167.73125,70.2851455 168.289838,68.6210997 169.407031,67.4335938 C170.524224,66.2460878 172.094521,65.6523438 174.117969,65.6523438 C175.375788,65.6523438 176.485151,65.9257785 177.446094,66.4726562 C178.407036,67.019534 179.14531,67.8046824 179.660938,68.828125 C180.176565,69.8515676 180.434375,71.0507744 180.434375,72.4257812 L180.434375,72.4257812 Z M195.63125,79 L192.057031,79 L192.057031,71.3476562 C192.057031,70.402339 191.889064,69.6933617 191.553125,69.2207031 C191.217186,68.7480445 190.682035,68.5117188 189.947656,68.5117188 C188.947651,68.5117188 188.225002,68.8456998 187.779688,69.5136719 C187.334373,70.181644 187.111719,71.2890548 187.111719,72.8359375 L187.111719,79 L183.5375,79 L183.5375,65.8984375 L186.267969,65.8984375 L186.748438,67.5742188 L186.947656,67.5742188 C187.346096,66.9414031 187.894918,66.4628922 188.594141,66.1386719 C189.293363,65.8144515 190.088277,65.6523438 190.978906,65.6523438 C192.502351,65.6523438 193.65859,66.064449 194.447656,66.8886719 C195.236723,67.7128947 195.63125,68.902336 195.63125,70.4570312 L195.63125,79 Z" id="Type-something" fill="#FFFFFF"></path>
                    <path d="M60.140625,124 L44.0566406,124 L44.0566406,122.453125 L50.8945312,115.316406 C52.8164159,113.324209 54.1640586,111.800787 54.9375,110.746094 C55.7109414,109.691401 56.2792951,108.683599 56.6425781,107.722656 C57.0058612,106.761714 57.1875,105.753912 57.1875,104.699219 C57.1875,103.164055 56.6835988,101.91602 55.6757812,100.955078 C54.6679637,99.9941358 53.3613362,99.5136719 51.7558594,99.5136719 C49.6113174,99.5136719 47.5605567,100.292961 45.6035156,101.851562 L44.6542969,100.638672 C46.7988388,98.8339754 49.1777213,97.9316406 51.7910156,97.9316406 C54.0293081,97.9316406 55.7900326,98.5292909 57.0732422,99.7246094 C58.3564517,100.919928 58.9980469,102.566396 58.9980469,104.664062 C58.9980469,106.36329 58.5673871,108.006828 57.7060547,109.594727 C56.8447223,111.182625 55.2714958,113.142566 52.9863281,115.474609 L46.3945312,122.242188 L46.3945312,122.3125 L60.140625,122.3125 L60.140625,124 Z M79.828125,104.347656 C79.828125,105.941414 79.3271534,107.283198 78.3251953,108.373047 C77.3232372,109.462896 75.9785241,110.160155 74.2910156,110.464844 L74.2910156,110.570312 C76.3535259,110.828126 77.9238227,111.48437 79.0019531,112.539062 C80.0800835,113.593755 80.6191406,115.01171 80.6191406,116.792969 C80.6191406,119.195325 79.801766,121.055657 78.1669922,122.374023 C76.5322184,123.692389 74.1797029,124.351562 71.109375,124.351562 C68.4960807,124.351562 66.2168066,123.865239 64.2714844,122.892578 L64.2714844,121.152344 C65.2558643,121.667971 66.3603454,122.072264 67.5849609,122.365234 C68.8095764,122.658205 69.9609321,122.804688 71.0390625,122.804688 C73.6289192,122.804688 75.5742122,122.280279 76.875,121.231445 C78.1757878,120.182612 78.8261719,118.703135 78.8261719,116.792969 C78.8261719,115.093742 78.1611395,113.787114 76.8310547,112.873047 C75.5009699,111.95898 73.5468879,111.501953 70.96875,111.501953 L68.1914062,111.501953 L68.1914062,109.814453 L71.0039062,109.814453 C73.1367294,109.814453 74.8271422,109.307622 76.0751953,108.293945 C77.3232484,107.280268 77.9472656,105.906259 77.9472656,104.171875 C77.9472656,102.74218 77.4404348,101.596684 76.4267578,100.735352 C75.4130809,99.8740191 74.0859457,99.4433594 72.4453125,99.4433594 C71.1679624,99.4433594 70.0019584,99.6220685 68.9472656,99.9794922 C67.8925729,100.336916 66.7089909,100.949214 65.3964844,101.816406 L64.5351562,100.638672 C65.531255,99.8066365 66.7324148,99.1474634 68.1386719,98.6611328 C69.5449289,98.1748023 70.9687428,97.9316406 72.4101562,97.9316406 C74.7773556,97.9316406 76.6054623,98.4912053 77.8945312,99.6103516 C79.1836002,100.729498 79.828125,102.308584 79.828125,104.347656 L79.828125,104.347656 Z M88.3535156,119.816406 L88.5644531,120.185547 C87.6855425,123.291031 86.6660214,126.109362 85.5058594,128.640625 L84.3632812,128.640625 C85.2656295,125.417953 85.9101543,122.476576 86.296875,119.816406 L88.3535156,119.816406 Z M109.113281,109.199219 C109.113281,112.574236 108.670903,115.398426 107.786133,117.671875 C106.901363,119.945324 105.612313,121.626948 103.918945,122.716797 C102.225577,123.806646 100.177746,124.351562 97.7753906,124.351562 C96.5566345,124.351562 95.4316458,124.19922 94.4003906,123.894531 L94.4003906,122.382812 C94.9042994,122.546876 95.5107386,122.672851 96.2197266,122.760742 C96.9287145,122.848633 97.4707012,122.892578 97.8457031,122.892578 C100.740249,122.892578 103.007804,121.84669 104.648438,119.754883 C106.289071,117.663075 107.203124,114.613301 107.390625,110.605469 L107.179688,110.605469 C106.324214,111.730474 105.304693,112.594724 104.121094,113.198242 C102.937494,113.801761 101.701178,114.103516 100.412109,114.103516 C98.0331912,114.103516 96.1787176,113.447272 94.8486328,112.134766 C93.518548,110.822259 92.8535156,108.958996 92.8535156,106.544922 C92.8535156,103.966784 93.5830005,101.880867 95.0419922,100.287109 C96.5009839,98.6933514 98.3964727,97.8964844 100.728516,97.8964844 C102.416024,97.8964844 103.892572,98.3388628 105.158203,99.2236328 C106.423834,100.108403 107.399411,101.406241 108.084961,103.117188 C108.770511,104.828134 109.113281,106.855457 109.113281,109.199219 L109.113281,109.199219 Z M100.728516,99.4433594 C98.8769439,99.4433594 97.4003961,100.067377 96.2988281,101.31543 C95.1972601,102.563483 94.6464844,104.271474 94.6464844,106.439453 C94.6464844,108.478526 95.1562449,110.025385 96.1757812,111.080078 C97.1953176,112.134771 98.6542874,112.662109 100.552734,112.662109 C101.736334,112.662109 102.840815,112.39844 103.866211,111.871094 C104.891607,111.343747 105.706052,110.643559 106.30957,109.770508 C106.913089,108.897457 107.214844,108.00977 107.214844,107.107422 C107.214844,105.736321 106.942386,104.453131 106.397461,103.257812 C105.852536,102.062494 105.090825,101.127933 104.112305,100.454102 C103.133784,99.7802701 102.005866,99.4433594 100.728516,99.4433594 L100.728516,99.4433594 Z M129.521484,124 L113.4375,124 L113.4375,122.453125 L120.275391,115.316406 C122.197275,113.324209 123.544918,111.800787 124.318359,110.746094 C125.091801,109.691401 125.660154,108.683599 126.023438,107.722656 C126.386721,106.761714 126.568359,105.753912 126.568359,104.699219 C126.568359,103.164055 126.064458,101.91602 125.056641,100.955078 C124.048823,99.9941358 122.742196,99.5136719 121.136719,99.5136719 C118.992177,99.5136719 116.941416,100.292961 114.984375,101.851562 L114.035156,100.638672 C116.179698,98.8339754 118.558581,97.9316406 121.171875,97.9316406 C123.410167,97.9316406 125.170892,98.5292909 126.454102,99.7246094 C127.737311,100.919928 128.378906,102.566396 128.378906,104.664062 C128.378906,106.36329 127.948246,108.006828 127.086914,109.594727 C126.225582,111.182625 124.652355,113.142566 122.367188,115.474609 L115.775391,122.242188 L115.775391,122.3125 L129.521484,122.3125 L129.521484,124 Z M152.056641,117.443359 L147.626953,117.443359 L147.626953,124 L145.974609,124 L145.974609,117.443359 L132.755859,117.443359 L132.755859,116.265625 L145.5,98.1601562 L147.626953,98.1601562 L147.626953,115.931641 L152.056641,115.931641 L152.056641,117.443359 Z M145.974609,115.931641 L145.974609,108.583984 C145.974609,105.044904 146.05664,102.074231 146.220703,99.671875 L146.080078,99.671875 C145.845702,100.105471 145.125006,101.207022 143.917969,102.976562 L134.847656,115.931641 L145.974609,115.931641 Z M157.734375,119.816406 L157.945312,120.185547 C157.066402,123.291031 156.046881,126.109362 154.886719,128.640625 L153.744141,128.640625 C154.646489,125.417953 155.291014,122.476576 155.677734,119.816406 L157.734375,119.816406 Z M170.513672,97.8613281 C172.69337,97.8613281 174.448236,98.4179632 175.77832,99.53125 C177.108405,100.644537 177.773438,102.150381 177.773438,104.048828 C177.773438,105.361335 177.360356,106.521479 176.53418,107.529297 C175.708004,108.537114 174.36915,109.468746 172.517578,110.324219 C174.767589,111.250005 176.349605,112.263666 177.263672,113.365234 C178.177739,114.466802 178.634766,115.802727 178.634766,117.373047 C178.634766,119.494151 177.893562,121.187494 176.411133,122.453125 C174.928704,123.718756 172.939466,124.351562 170.443359,124.351562 C167.853503,124.351562 165.867194,123.759772 164.484375,122.576172 C163.101556,121.392572 162.410156,119.669933 162.410156,117.408203 C162.410156,115.873039 162.89648,114.525396 163.869141,113.365234 C164.841802,112.205072 166.347646,111.214848 168.386719,110.394531 C166.499991,109.503902 165.169926,108.563482 164.396484,107.573242 C163.623043,106.583003 163.236328,105.396491 163.236328,104.013672 C163.236328,102.783197 163.546872,101.702153 164.167969,100.770508 C164.789066,99.8388625 165.659174,99.1210963 166.77832,98.6171875 C167.897467,98.1132787 169.142571,97.8613281 170.513672,97.8613281 L170.513672,97.8613281 Z M164.203125,117.671875 C164.203125,119.289071 164.750971,120.542964 165.84668,121.433594 C166.942388,122.324223 168.4746,122.769531 170.443359,122.769531 C172.365244,122.769531 173.912104,122.297856 175.083984,121.354492 C176.255865,120.411128 176.841797,119.130867 176.841797,117.513672 C176.841797,116.06054 176.381841,114.879887 175.461914,113.97168 C174.541988,113.063472 172.769544,112.111333 170.144531,111.115234 C167.98827,111.94727 166.458989,112.867182 165.556641,113.875 C164.654292,114.882818 164.203125,116.14843 164.203125,117.671875 L164.203125,117.671875 Z M170.478516,99.4433594 C168.826164,99.4433594 167.499028,99.8505819 166.49707,100.665039 C165.495112,101.479496 164.994141,102.595696 164.994141,104.013672 C164.994141,104.833988 165.178709,105.557614 165.547852,106.18457 C165.916994,106.811527 166.450192,107.37988 167.147461,107.889648 C167.84473,108.399417 169.013664,108.994137 170.654297,109.673828 C172.564463,108.935543 173.935543,108.121098 174.767578,107.230469 C175.599614,106.339839 176.015625,105.267584 176.015625,104.013672 C176.015625,102.607415 175.520513,101.494145 174.530273,100.673828 C173.540034,99.8535115 172.189462,99.4433594 170.478516,99.4433594 L170.478516,99.4433594 Z M198.041016,104.347656 C198.041016,105.941414 197.540044,107.283198 196.538086,108.373047 C195.536128,109.462896 194.191415,110.160155 192.503906,110.464844 L192.503906,110.570312 C194.566417,110.828126 196.136713,111.48437 197.214844,112.539062 C198.292974,113.593755 198.832031,115.01171 198.832031,116.792969 C198.832031,119.195325 198.014657,121.055657 196.379883,122.374023 C194.745109,123.692389 192.392593,124.351562 189.322266,124.351562 C186.708971,124.351562 184.429697,123.865239 182.484375,122.892578 L182.484375,121.152344 C183.468755,121.667971 184.573236,122.072264 185.797852,122.365234 C187.022467,122.658205 188.173823,122.804688 189.251953,122.804688 C191.84181,122.804688 193.787103,122.280279 195.087891,121.231445 C196.388678,120.182612 197.039062,118.703135 197.039062,116.792969 C197.039062,115.093742 196.37403,113.787114 195.043945,112.873047 C193.713861,111.95898 191.759779,111.501953 189.181641,111.501953 L186.404297,111.501953 L186.404297,109.814453 L189.216797,109.814453 C191.34962,109.814453 193.040033,109.307622 194.288086,108.293945 C195.536139,107.280268 196.160156,105.906259 196.160156,104.171875 C196.160156,102.74218 195.653325,101.596684 194.639648,100.735352 C193.625971,99.8740191 192.298836,99.4433594 190.658203,99.4433594 C189.380853,99.4433594 188.214849,99.6220685 187.160156,99.9794922 C186.105463,100.336916 184.921882,100.949214 183.609375,101.816406 L182.748047,100.638672 C183.744146,99.8066365 184.945305,99.1474634 186.351562,98.6611328 C187.75782,98.1748023 189.181633,97.9316406 190.623047,97.9316406 C192.990246,97.9316406 194.818353,98.4912053 196.107422,99.6103516 C197.396491,100.729498 198.041016,102.308584 198.041016,104.347656 L198.041016,104.347656 Z M203.683594,113.048828 C203.683594,109.708968 204.137691,106.899425 205.045898,104.620117 C205.954106,102.340809 207.243156,100.650396 208.913086,99.5488281 C210.583016,98.4472601 212.595691,97.8964844 214.951172,97.8964844 C216.05274,97.8964844 217.060542,98.0312487 217.974609,98.3007812 L217.974609,99.8476562 C217.119136,99.5312484 216.087897,99.3730469 214.880859,99.3730469 C211.986314,99.3730469 209.733406,100.416005 208.12207,102.501953 C206.510734,104.587901 205.60547,107.623027 205.40625,111.607422 L205.634766,111.607422 C206.525395,110.458979 207.544916,109.5918 208.693359,109.005859 C209.841803,108.419919 211.054681,108.126953 212.332031,108.126953 C214.734387,108.126953 216.612298,108.812493 217.96582,110.183594 C219.319343,111.554694 219.996094,113.447254 219.996094,115.861328 C219.996094,118.486341 219.284187,120.55761 217.860352,122.075195 C216.436516,123.592781 214.51759,124.351562 212.103516,124.351562 C209.50194,124.351562 207.44825,123.358408 205.942383,121.37207 C204.436516,119.385732 203.683594,116.611346 203.683594,113.048828 L203.683594,113.048828 Z M212.103516,122.804688 C214.0254,122.804688 215.519526,122.201178 216.585938,120.994141 C217.652349,119.787103 218.185547,118.064464 218.185547,115.826172 C218.185547,113.857412 217.658208,112.322271 216.603516,111.220703 C215.548823,110.119135 214.11329,109.568359 212.296875,109.568359 C211.101557,109.568359 209.991216,109.832029 208.96582,110.359375 C207.940425,110.886721 207.12305,111.58691 206.513672,112.459961 C205.904294,113.333012 205.599609,114.226558 205.599609,115.140625 C205.599609,116.441413 205.889646,117.692377 206.469727,118.893555 C207.049808,120.094733 207.834956,121.046871 208.825195,121.75 C209.815435,122.453129 210.908197,122.804688 212.103516,122.804688 L212.103516,122.804688 Z" id="23,924,836" fill="#FFFFFF"></path>
                </g>
            </g>
        </g>
    </g>
</svg>