<?xml version="1.0" encoding="UTF-8" standalone="no"?>
<svg width="20px" height="15px" viewBox="0 0 20 15" version="1.1" xmlns="http://www.w3.org/2000/svg" xmlns:xlink="http://www.w3.org/1999/xlink" xmlns:sketch="http://www.bohemiancoding.com/sketch/ns">
    <!-- Generator: Sketch 3.4.1 (15681) - http://www.bohemiancoding.com/sketch -->
    <title>quote</title>
    <desc>Created with Sketch.</desc>
    <defs></defs>
    <g id="Templates" stroke="none" stroke-width="1" fill="none" fill-rule="evenodd" sketch:type="MSPage">
        <g id="Kelly-O’Dwyer---Mobile" sketch:type="MSArtboardGroup" transform="translate(-26.000000, -987.000000)" fill="#02BFE7">
            <path d="M35.1019417,987 L35.1019417,987.800971 C33.5161733,988.77185 32.480585,989.682035 31.9951456,990.531553 C31.5097063,991.381072 31.2184471,992.291257 31.1213592,993.262136 C32.4320454,993.423949 33.3665021,993.933653 33.9247573,994.791262 C34.4830125,995.648872 34.7621359,996.482197 34.7621359,997.291262 C34.7621359,998.359229 34.369745,999.305821 33.5849515,1000.13107 C32.8001579,1000.95631 31.7847959,1001.36893 30.538835,1001.36893 C29.2443301,1001.36893 28.1642438,1000.87136 27.2985437,999.876214 C26.4328436,998.881063 26,997.720071 26,996.393204 C26,994.936886 26.4207078,993.537224 27.2621359,992.194175 C28.1035641,990.851126 29.224103,989.722496 30.6237864,988.808252 C32.0234698,987.894008 33.5161733,987.291264 35.1019417,987 L35.1019417,987 Z M46,987 L46,987.800971 C44.4304129,988.755668 43.3988698,989.661808 42.9053398,990.519417 C42.4118098,991.377027 42.1165053,992.291257 42.0194175,993.262136 C43.3139223,993.423949 44.2402885,993.933653 44.7985437,994.791262 C45.3567989,995.648872 45.6359223,996.482197 45.6359223,997.291262 C45.6359223,998.359229 45.2435314,999.305821 44.4587379,1000.13107 C43.6739443,1000.95631 42.6585823,1001.36893 41.4126214,1001.36893 C40.1342978,1001.36893 39.0623021,1000.87136 38.1966019,999.876214 C37.3309018,998.881063 36.8980583,997.720071 36.8980583,996.393204 C36.8980583,994.904523 37.3106755,993.500816 38.1359223,992.182039 C38.9611692,990.863262 40.0695723,989.742723 41.461165,988.820388 C42.8527578,987.898054 44.3656876,987.291264 46,987 L46,987 Z" id="quote" sketch:type="MSShapeGroup"></path>
        </g>
    </g>
</svg>