<?xml version="1.0" encoding="UTF-8" standalone="no"?>
<svg width="143px" height="143px" viewBox="0 0 143 143" version="1.1" xmlns="http://www.w3.org/2000/svg" xmlns:xlink="http://www.w3.org/1999/xlink" xmlns:sketch="http://www.bohemiancoding.com/sketch/ns">
    <!-- Generator: Sketch 3.4.1 (15681) - http://www.bohemiancoding.com/sketch -->
    <title>Oval blue 285</title>
    <desc>Created with Sketch.</desc>
    <defs></defs>
    <g id="Templates" stroke="none" stroke-width="1" fill="none" fill-rule="evenodd" sketch:type="MSPage">
        <g id="Desktop-HD-HOME" sketch:type="MSArtboardGroup" transform="translate(-649.000000, -2298.000000)">
            <g id="Oval-blue-285" sketch:type="MSLayerGroup" transform="translate(649.000000, 2298.000000)">
                <circle id="Oval-8-Copy-2" fill="#427FC2" sketch:type="MSShapeGroup" cx="71.5" cy="71.5" r="71.5"></circle>
                <path d="M49.800293,97 L14.8686523,97 L14.8686523,89.6513672 L27.4125977,76.9707031 C31.1268089,73.1653456 33.5535425,70.5278394 34.6928711,69.0581055 C35.8321997,67.5883716 36.652504,66.2268943 37.1538086,64.9736328 C37.6551132,63.7203713 37.9057617,62.4215562 37.9057617,61.0771484 C37.9057617,59.0719301 37.3531956,57.579432 36.2480469,56.5996094 C35.1428981,55.6197868 33.6674897,55.1298828 31.8217773,55.1298828 C29.8849187,55.1298828 28.0050547,55.5742143 26.1821289,56.4628906 C24.3592031,57.3515669 22.4565529,58.6162027 20.4741211,60.2568359 L14.7319336,53.4550781 C17.1928834,51.3587135 19.232251,49.8776085 20.8500977,49.0117188 C22.4679443,48.145829 24.2338771,47.4793318 26.1479492,47.012207 C28.0620213,46.5450823 30.203927,46.3115234 32.5737305,46.3115234 C35.6954909,46.3115234 38.4526248,46.8811792 40.8452148,48.0205078 C43.2378049,49.1598364 45.0948827,50.7548726 46.4165039,52.8056641 C47.7381251,54.8564556 48.3989258,57.2034373 48.3989258,59.8466797 C48.3989258,62.1481235 47.9944702,64.3071188 47.1855469,66.3237305 C46.3766236,68.3403421 45.1233809,70.4081925 43.4257812,72.5273438 C41.7281816,74.646495 38.7374889,77.6656705 34.4536133,81.5849609 L28.027832,87.6347656 L28.027832,88.1132812 L49.800293,88.1132812 L49.800293,97 Z M72.0512695,46.3798828 C76.8364497,46.3798828 80.6930192,47.4679253 83.6210938,49.644043 C86.5491683,51.8201606 88.0131836,54.7538878 88.0131836,58.4453125 C88.0131836,60.9974086 87.3068104,63.2703351 85.894043,65.2641602 C84.4812755,67.2579852 82.2026524,69.0410078 79.0581055,70.6132812 C82.7951033,72.6184996 85.478182,74.7091363 87.1074219,76.8852539 C88.7366618,79.0613716 89.5512695,81.4482292 89.5512695,84.0458984 C89.5512695,88.1474814 87.9448403,91.4457883 84.7319336,93.940918 C81.5190269,96.4360476 77.2921812,97.6835938 72.0512695,97.6835938 C66.5824922,97.6835938 62.2872877,96.521496 59.1655273,94.1972656 C56.0437669,91.8730353 54.4829102,88.580425 54.4829102,84.3193359 C54.4829102,81.4710144 55.2405523,78.9417428 56.7558594,76.7314453 C58.2711664,74.5211478 60.7035965,72.5729251 64.0532227,70.8867188 C61.2049011,69.0865795 59.1541404,67.1611431 57.9008789,65.1103516 C56.6476174,63.0595601 56.0209961,60.8151164 56.0209961,58.3769531 C56.0209961,54.7994613 57.5021011,51.90561 60.4643555,49.6953125 C63.4266099,47.485015 67.2888759,46.3798828 72.0512695,46.3798828 L72.0512695,46.3798828 Z M64.2583008,83.7041016 C64.2583008,85.6637468 64.9418877,87.1904242 66.309082,88.2841797 C67.6762764,89.3779352 69.5447473,89.9248047 71.9145508,89.9248047 C74.5350066,89.9248047 76.4946224,89.3608455 77.793457,88.2329102 C79.0922917,87.1049748 79.7416992,85.6181733 79.7416992,83.7724609 C79.7416992,82.2457606 79.0979882,80.8159246 77.8105469,79.4829102 C76.5231055,78.1498957 74.4324689,76.7314528 71.5385742,75.2275391 C66.6850343,77.4606231 64.2583008,80.2861157 64.2583008,83.7041016 L64.2583008,83.7041016 Z M71.9829102,54.1044922 C70.1827709,54.1044922 68.7301488,54.5659134 67.625,55.4887695 C66.5198512,56.4116257 65.9672852,57.6477787 65.9672852,59.1972656 C65.9672852,60.56446 66.4059201,61.7892198 67.2832031,62.871582 C68.1604862,63.9539442 69.7498257,65.0647729 72.0512695,66.2041016 C74.2843536,65.1559192 75.8452104,64.0849664 76.7338867,62.9912109 C77.622563,61.8974555 78.0668945,60.6328197 78.0668945,59.1972656 C78.0668945,57.6249921 77.4972388,56.3831426 76.3579102,55.4716797 C75.2185815,54.5602168 73.7602628,54.1044922 71.9829102,54.1044922 L71.9829102,54.1044922 Z M112.964355,65.0761719 C117.795109,65.0761719 121.640285,66.4319526 124.5,69.1435547 C127.359715,71.8551568 128.789551,75.5693124 128.789551,80.2861328 C128.789551,85.868843 127.06919,90.1640475 123.628418,93.171875 C120.187646,96.1797025 115.26582,97.6835938 108.862793,97.6835938 C103.302869,97.6835938 98.8139819,96.7835376 95.3959961,94.9833984 L95.3959961,85.8574219 C97.1961353,86.8144579 99.2924685,87.5948863 101.685059,88.1987305 C104.077649,88.8025746 106.344879,89.1044922 108.486816,89.1044922 C114.935416,89.1044922 118.159668,86.4612895 118.159668,81.1748047 C118.159668,76.1389722 114.821485,73.6210938 108.14502,73.6210938 C106.937331,73.6210938 105.604337,73.7407215 104.145996,73.9799805 C102.687655,74.2192395 101.502771,74.4755846 100.591309,74.7490234 L96.387207,72.4931641 L98.2670898,47.0292969 L125.371582,47.0292969 L125.371582,55.984375 L107.529785,55.984375 L106.606934,65.7939453 L107.803223,65.5546875 C109.193204,65.2356755 110.913564,65.0761719 112.964355,65.0761719 L112.964355,65.0761719 Z" id="285" fill="#FFFFFF" sketch:type="MSShapeGroup"></path>
            </g>
        </g>
    </g>
</svg>