<?xml version="1.0" encoding="UTF-8" standalone="no"?>
<svg width="143px" height="143px" viewBox="0 0 143 143" version="1.1" xmlns="http://www.w3.org/2000/svg" xmlns:xlink="http://www.w3.org/1999/xlink" xmlns:sketch="http://www.bohemiancoding.com/sketch/ns">
    <!-- Generator: Sketch 3.4.1 (15681) - http://www.bohemiancoding.com/sketch -->
    <title>Oval blue 28</title>
    <desc>Created with Sketch.</desc>
    <defs></defs>
    <g id="Templates" stroke="none" stroke-width="1" fill="none" fill-rule="evenodd" sketch:type="MSPage">
        <g id="Desktop-HD-HOME" sketch:type="MSArtboardGroup" transform="translate(-240.000000, -2298.000000)">
            <g id="Oval-blue-28" sketch:type="MSLayerGroup" transform="translate(240.000000, 2298.000000)">
                <circle id="Oval-blue" fill="#427FC2" sketch:type="MSShapeGroup" cx="71.5" cy="71.5" r="71.5"></circle>
                <path d="M69.7783203,97 L34.8466797,97 L34.8466797,89.6513672 L47.390625,76.9707031 C51.1048363,73.1653456 53.5315698,70.5278394 54.6708984,69.0581055 C55.8102271,67.5883716 56.6305313,66.2268943 57.1318359,64.9736328 C57.6331405,63.7203713 57.8837891,62.4215562 57.8837891,61.0771484 C57.8837891,59.0719301 57.331223,57.579432 56.2260742,56.5996094 C55.1209255,55.6197868 53.645517,55.1298828 51.7998047,55.1298828 C49.862946,55.1298828 47.983082,55.5742143 46.1601562,56.4628906 C44.3372305,57.3515669 42.4345802,58.6162027 40.4521484,60.2568359 L34.7099609,53.4550781 C37.1709107,51.3587135 39.2102784,49.8776085 40.828125,49.0117188 C42.4459716,48.145829 44.2119045,47.4793318 46.1259766,47.012207 C48.0400486,46.5450823 50.1819543,46.3115234 52.5517578,46.3115234 C55.6735182,46.3115234 58.4306521,46.8811792 60.8232422,48.0205078 C63.2158323,49.1598364 65.0729101,50.7548726 66.3945312,52.8056641 C67.7161524,54.8564556 68.3769531,57.2034373 68.3769531,59.8466797 C68.3769531,62.1481235 67.9724975,64.3071188 67.1635742,66.3237305 C66.3546509,68.3403421 65.1014082,70.4081925 63.4038086,72.5273438 C61.706209,74.646495 58.7155162,77.6656705 54.4316406,81.5849609 L48.0058594,87.6347656 L48.0058594,88.1132812 L69.7783203,88.1132812 L69.7783203,97 Z M92.0292969,46.3798828 C96.8144771,46.3798828 100.671047,47.4679253 103.599121,49.644043 C106.527196,51.8201606 107.991211,54.7538878 107.991211,58.4453125 C107.991211,60.9974086 107.284838,63.2703351 105.87207,65.2641602 C104.459303,67.2579852 102.18068,69.0410078 99.0361328,70.6132812 C102.773131,72.6184996 105.456209,74.7091363 107.085449,76.8852539 C108.714689,79.0613716 109.529297,81.4482292 109.529297,84.0458984 C109.529297,88.1474814 107.922868,91.4457883 104.709961,93.940918 C101.497054,96.4360476 97.2702085,97.6835938 92.0292969,97.6835938 C86.5605195,97.6835938 82.2653151,96.521496 79.1435547,94.1972656 C76.0217943,91.8730353 74.4609375,88.580425 74.4609375,84.3193359 C74.4609375,81.4710144 75.2185797,78.9417428 76.7338867,76.7314453 C78.2491938,74.5211478 80.6816239,72.5729251 84.03125,70.8867188 C81.1829285,69.0865795 79.1321677,67.1611431 77.8789062,65.1103516 C76.6256448,63.0595601 75.9990234,60.8151164 75.9990234,58.3769531 C75.9990234,54.7994613 77.4801284,51.90561 80.4423828,49.6953125 C83.4046372,47.485015 87.2669033,46.3798828 92.0292969,46.3798828 L92.0292969,46.3798828 Z M84.2363281,83.7041016 C84.2363281,85.6637468 84.919915,87.1904242 86.2871094,88.2841797 C87.6543037,89.3779352 89.5227746,89.9248047 91.8925781,89.9248047 C94.5130339,89.9248047 96.4726498,89.3608455 97.7714844,88.2329102 C99.070319,87.1049748 99.7197266,85.6181733 99.7197266,83.7724609 C99.7197266,82.2457606 99.0760156,80.8159246 97.7885742,79.4829102 C96.5011329,78.1498957 94.4104962,76.7314528 91.5166016,75.2275391 C86.6630617,77.4606231 84.2363281,80.2861157 84.2363281,83.7041016 L84.2363281,83.7041016 Z M91.9609375,54.1044922 C90.1607983,54.1044922 88.7081761,54.5659134 87.6030273,55.4887695 C86.4978786,56.4116257 85.9453125,57.6477787 85.9453125,59.1972656 C85.9453125,60.56446 86.3839474,61.7892198 87.2612305,62.871582 C88.1385135,63.9539442 89.7278531,65.0647729 92.0292969,66.2041016 C94.262381,65.1559192 95.8232377,64.0849664 96.7119141,62.9912109 C97.6005904,61.8974555 98.0449219,60.6328197 98.0449219,59.1972656 C98.0449219,57.6249921 97.4752661,56.3831426 96.3359375,55.4716797 C95.1966089,54.5602168 93.7382901,54.1044922 91.9609375,54.1044922 L91.9609375,54.1044922 Z" id="28-copy" fill="#FFFFFF" sketch:type="MSShapeGroup"></path>
            </g>
        </g>
    </g>
</svg>