<?xml version="1.0" encoding="utf-8"?>
<!-- Generator: Adobe Illustrator 19.1.0, SVG Export Plug-In . SVG Version: 6.00 Build 0)  -->
<svg version="1.1" id="Layer_1" xmlns="http://www.w3.org/2000/svg" xmlns:xlink="http://www.w3.org/1999/xlink" x="0px" y="0px"
	 viewBox="-267 380.8 76.6 33.2" style="enable-background:new -267 380.8 76.6 33.2;" xml:space="preserve">
<style type="text/css">
	.st0{clip-path:url(#SVGID_2_);fill:#FFFFFF;}
	.st1{clip-path:url(#SVGID_4_);fill:#FFFFFF;}
	.st2{fill:#FFFFFF;}
</style>
<g>
	<g>
		<g>
			<g>
				<defs>
					<rect id="SVGID_1_" x="-267" y="380.8" width="76.6" height="33.2"/>
				</defs>
				<clipPath id="SVGID_2_">
					<use xlink:href="#SVGID_1_"  style="overflow:visible;"/>
				</clipPath>
				<path class="st0" d="M-252.1,408.4c0,0.8-0.2,1.7-0.6,2.3c-0.2,0.2-0.2,0.3-0.5,0.5c0,0,0,0-0.1,0.1s-0.2,0.1-0.1,0.1
					c-0.8,0.6-1.9,0.6-2.8,0.9c-1.8,0.2-3.5,0.4-5.3,0.4c-0.9,0-1.8,0.2-2.6,0c-0.9,0.2-1.9-0.1-2.7,0.4c-0.1,0.1,0,0.2,0,0.4
					c1.1,0.7,2.7,0.1,3.9,0.4h9.6c0.7,0,1.4,0,2-0.4c1.2-0.7,1.9-2,2.6-3.3c0.2-0.4,0.4-1,0.5-1.5c0.2-0.8,1-1.4,1.8-1.5
					c0.1,1.3-0.1,2.6-0.4,3.7c-0.1,0.8-0.7,1.6-0.3,2.4c0.1,0.4,0.5,0.4,0.8,0.4c3-0.1,5.9-0.2,9.1,0c0.6,0.1,1.1,0.3,1.7,0.2
					c0-0.1,0.2-0.1,0.1-0.2c-0.1-0.3-0.3-0.6-0.6-0.7c0-0.1-0.3-0.1-0.3-0.2c-1.6-0.9-3.5-0.4-5.3-0.4c-1,0.1-1.9,0.3-2.7-0.3
					c-0.4-0.4-0.1-1.9-0.1-1.9c0-0.6,1.3-4.4,1.5-4.8c0-0.4,0.2-0.7,0.1-1.1c0.2-0.5,0.1-1.1,0.1-1.7c0.1-0.8,0.5-1.5,0.8-2.3
					c0.1-0.4,0.3-0.8,0.4-1.1c0.1-0.5,0.2-0.9,0.5-1.3c0.8,0.5,1.6,0.5,2,1.4l0.3,2.1c0,0.1,0.1,0.4,0.3,0.2c0.6-0.4,0.4-1.4,0.4-2
					c0.1-0.8-0.4-1.1-0.6-1.8c-0.2-0.3-0.5-0.7-0.5-0.7c-0.1-0.5-1.3-0.9-1-1.6c0.1-0.6,0.3-1.1,0.8-1.4c0.1,0.1,0.5-0.1,0.5-0.1
					l0,0l0.7-0.7c0.6-0.6,1.3-1.3,2.1-1.3c0.2,0.1,0.4,0.2,0.6,0.3l1.7-0.3l0.5-0.4c0.2-0.3-1.4-0.9-2.2-0.9
					c-1.4-0.5-2.3,0.9-3.7,0.7c-0.2,0.1-0.1,0.3-0.2,0.4s-0.2,0-0.3,0c-0.1-0.6-0.3-1.1-0.3-1.7c-0.1-0.2-0.1-0.6-0.2-0.8
					c-0.8-2.1,1.9-0.5,2.4-1.8c0.5-1.1-0.9-1.2-1.3-2v-0.3c-0.4-0.4-0.8-0.5-1.1-1c0.2-0.6,0.2-1.3,0.1-1.9c0-0.1-0.1-0.3-0.3-0.3
					c-0.5,0.6-0.8,1.2-1.2,1.8c-0.5-0.3-0.9-0.8-1.4-1.1c-0.4,0-0.7-0.4-1.1-0.3c-0.1,0.1,0,0.3,0.1,0.4c0,1,0.5,1.7,1.2,2.4
					l0.1,0.4c-0.4,1-0.3,2.2-0.4,3.3c-1.1,2.8-2.9,5.5-5.3,7.5c-1.4,1.6-3.1,3.1-3.3,5.3c-0.1,0.3-0.2,1.1-0.2,1.4"/>
			</g>
		</g>
	</g>
	<g>
		<g>
			<g>
				<defs>
					<rect id="SVGID_3_" x="-267" y="380.8" width="76.6" height="33.2"/>
				</defs>
				<clipPath id="SVGID_4_">
					<use xlink:href="#SVGID_3_"  style="overflow:visible;"/>
				</clipPath>
				<path class="st1" d="M-196.1,406.9c0-0.5,0.1-1,0.2-1.5c0.1-0.2,0.1-0.3,0.1-0.6c0.6-0.9,1.9-0.6,2.9-0.5
					c0.4,0.2,0.9,0.2,1.3,0.3c0.2-0.1,0.4-0.2,0.7-0.1c0.8-0.5,0.3-1.4,0.3-2.2l-0.3-0.8c-0.1-0.2-0.2-0.3-0.2-0.5
					c-0.2-0.2-0.3-0.5-0.4-0.7c-0.4-1.2-1.3-1.8-2.1-2.8c-1.3-1.8-3.5-2.7-5.6-3.4c-2.1-0.7-4.2,0.2-6.1,0.9c-0.6-0.2-0.9-0.6-1-1.1
					c-0.1-1,0.1-2,0.5-2.8c0.1-0.7,0.5-1.2,0.7-1.8c0.5-1.5,1-2.9,1.1-4.6c0.1-1-0.7-1.7-1.4-2.1c-0.5-0.1-1.1-0.1-1.4,0.3
					c-0.3,0.7-1.1,1.2-1.7,1.5c-0.1,0.5,0.5,0.2,0.7,0.3c0.6,0.1,1.2-0.1,1.7,0.3c0.1,1.1-0.6,1.9-1.1,2.7c-0.9,1.3-1.8,2.7-2.4,4.1
					l-0.1-0.1l0.1,6.5c0.8,1.4,1.9,3,3.5,3.5c0.8,0.7,1.9,1.5,3,0.9c0.6-0.2,0.7,0.7,0.9,1c0.3,1-0.4,1.7-0.4,2.6l-0.7,1.5
					c-0.8,1.5-1.5,3.2-2.7,4.5c-0.4,0-0.6,0.4-1,0.5c-0.2,0.3-0.6,0.1-0.9,0.2c-0.8,0.3-2,0.1-2.5,0.9c0.1,0.1,0.1,0.1,0.2,0.1
					c1.6,0,3.4,0.1,5.1,0.1c0.2-0.1,0.4-0.3,0.4-0.5c-0.2-0.5,0.1-0.9,0.3-1.2c0.1-0.6,0.6-1,0.7-1.6c0.6-1.1,1.2-2.1,1.8-3.2
					l0.8-1.3c0.2-0.5,0.5-1,0.8-1.5c0.2-0.2,0.3-0.5,0.5-0.7c0-0.3-0.1-0.4-0.3-0.6c0.2-0.2,0.5-0.1,0.7-0.2c0.7,0.4,1.3,1,1.5,1.8
					l0.2,0.7l0.1,0.3l-0.1,0.9l0.1,0.8c0.1,1.3-0.1,2.6-0.2,3.8c-0.4,1.5-2.2,1.4-3.5,1.7c-0.3,0.2-0.9,0.1-0.9,0.6
					c1.5,0.3,3.3,0.1,5,0.1c0.3-0.1,0.3-0.3,0.4-0.6c0.1-0.3,0.4-0.6,0.3-1c-0.3-0.4,0-1-0.1-1.5c0.1-0.1,0.1-0.3,0-0.5
					c0.2-0.8,0.2-1.7,0.3-2.4L-196.1,406.9z"/>
			</g>
		</g>
	</g>
	<g>
		<g>
			<g>
				<path class="st2" d="M-209.2,380.8L-209.2,380.8L-209.2,380.8H-237l0,0l0,0V402c0,2.2,0.9,4.1,2.2,4.6l10.7,6.8
					c0.2,0.3,0.6,0.4,1,0.4c0.3,0,0.6-0.1,0.9-0.3l10.8-6.9c1.3-0.6,2.2-2.5,2.2-4.6"/>
			</g>
		</g>
	</g>
</g>
</svg>
