<?xml version="1.0" encoding="UTF-8" standalone="no"?>
<svg width="78px" height="78px" viewBox="0 0 78 78" version="1.1" xmlns="http://www.w3.org/2000/svg" xmlns:xlink="http://www.w3.org/1999/xlink" xmlns:sketch="http://www.bohemiancoding.com/sketch/ns">
    <!-- Generator: Sketch 3.4.2 (15857) - http://www.bohemiancoding.com/sketch -->
    <title>tick</title>
    <desc>Created with Sketch.</desc>
    <defs></defs>
    <g id="Page-1" stroke="none" stroke-width="1" fill="none" fill-rule="evenodd" sketch:type="MSPage">
        <g id="Starting-a-business" sketch:type="MSArtboardGroup" transform="translate(-43.000000, -85.000000)" fill="#02BFE7">
            <path d="M107.486607,115.720982 C107.486607,114.783477 107.185271,114.013396 106.582589,113.410714 L102.012277,108.890625 C101.376113,108.254461 100.622772,107.936384 99.7522321,107.936384 C98.8816921,107.936384 98.1283514,108.254461 97.4921875,108.890625 L77.0011161,129.331473 L65.6506696,117.981027 C65.0145057,117.344863 64.2611651,117.026786 63.390625,117.026786 C62.5200849,117.026786 61.7667443,117.344863 61.1305804,117.981027 L56.5602679,122.501116 C55.9575863,123.103798 55.65625,123.873879 55.65625,124.811384 C55.65625,125.715406 55.9575863,126.468747 56.5602679,127.071429 L74.7410714,145.252232 C75.3772353,145.888396 76.130576,146.206473 77.0011161,146.206473 C77.9051384,146.206473 78.67522,145.888396 79.3113839,145.252232 L106.582589,117.981027 C107.185271,117.378345 107.486607,116.625005 107.486607,115.720982 L107.486607,115.720982 Z M120.142857,123.857143 C120.142857,130.854946 118.418544,137.308564 114.969866,143.218192 C111.521188,149.12782 106.842105,153.806902 100.932478,157.25558 C95.0228499,160.704258 88.5692314,162.428571 81.5714286,162.428571 C74.5736257,162.428571 68.1200072,160.704258 62.2103795,157.25558 C56.3007517,153.806902 51.621669,149.12782 48.1729911,143.218192 C44.7243131,137.308564 43,130.854946 43,123.857143 C43,116.85934 44.7243131,110.405722 48.1729911,104.496094 C51.621669,98.586466 56.3007517,93.9073833 62.2103795,90.4587054 C68.1200072,87.0100274 74.5736257,85.2857143 81.5714286,85.2857143 C88.5692314,85.2857143 95.0228499,87.0100274 100.932478,90.4587054 C106.842105,93.9073833 111.521188,98.586466 114.969866,104.496094 C118.418544,110.405722 120.142857,116.85934 120.142857,123.857143 L120.142857,123.857143 Z" id="tick" sketch:type="MSShapeGroup"></path>
        </g>
    </g>
</svg>