<?xml version="1.0" encoding="UTF-8" standalone="no"?>
<svg width="26px" height="26px" viewBox="0 0 26 26" version="1.1" xmlns="http://www.w3.org/2000/svg" xmlns:xlink="http://www.w3.org/1999/xlink" xmlns:sketch="http://www.bohemiancoding.com/sketch/ns">
    <!-- Generator: Sketch 3.4.2 (15857) - http://www.bohemiancoding.com/sketch -->
    <title>youtube</title>
    <desc>Created with Sketch.</desc>
    <defs></defs>
    <g id="Templates" stroke="none" stroke-width="1" fill="none" fill-rule="evenodd" sketch:type="MSPage">
        <g id="Agency---Mobile" sketch:type="MSArtboardGroup" transform="translate(-45.000000, -2879.000000)" fill="#7B8186">
            <path d="M60.3850446,2898.69933 L60.3850446,2896.07098 C60.3850446,2895.51294 60.2232159,2895.23393 59.8995536,2895.23393 C59.7098205,2895.23393 59.5256705,2895.32321 59.3470982,2895.50179 L59.3470982,2899.25179 C59.5256705,2899.43036 59.7098205,2899.51964 59.8995536,2899.51964 C60.2232159,2899.51964 60.3850446,2899.24621 60.3850446,2898.69933 L60.3850446,2898.69933 Z M63.4654018,2896.65692 L64.5703125,2896.65692 L64.5703125,2896.08772 C64.5703125,2895.51852 64.3861626,2895.23393 64.0178571,2895.23393 C63.6495517,2895.23393 63.4654018,2895.51852 63.4654018,2896.08772 L63.4654018,2896.65692 Z M53.90625,2892.20379 L53.90625,2893.37567 L52.5669643,2893.37567 L52.5669643,2900.45714 L51.328125,2900.45714 L51.328125,2893.37567 L50.0223214,2893.37567 L50.0223214,2892.20379 L53.90625,2892.20379 Z M57.2712054,2894.31317 L57.2712054,2900.45714 L56.1495536,2900.45714 L56.1495536,2899.7875 C55.7142835,2900.28973 55.2901806,2900.54085 54.8772321,2900.54085 C54.5089267,2900.54085 54.2745541,2900.3846 54.1741071,2900.0721 C54.1071425,2899.89353 54.0736607,2899.59219 54.0736607,2899.16808 L54.0736607,2894.31317 L55.1785714,2894.31317 L55.1785714,2898.83326 C55.1785714,2899.10112 55.1841517,2899.24621 55.1953125,2899.26853 C55.2064733,2899.43594 55.2901778,2899.51964 55.4464286,2899.51964 C55.669644,2899.51964 55.9040166,2899.34665 56.1495536,2899.00067 L56.1495536,2894.31317 L57.2712054,2894.31317 Z M61.4899554,2896.17143 L61.4899554,2898.61563 C61.4899554,2899.19599 61.4508932,2899.60335 61.3727679,2899.83772 C61.2388386,2900.30648 60.9430826,2900.54085 60.4854911,2900.54085 C60.0948641,2900.54085 59.7154036,2900.31206 59.3470982,2899.85446 L59.3470982,2900.45714 L58.2254464,2900.45714 L58.2254464,2892.20379 L59.3470982,2892.20379 L59.3470982,2894.89911 C59.7042429,2894.45268 60.0837033,2894.22946 60.4854911,2894.22946 C60.9430826,2894.22946 61.2388386,2894.46384 61.3727679,2894.93259 C61.4508932,2895.16697 61.4899554,2895.57991 61.4899554,2896.17143 L61.4899554,2896.17143 Z M65.6919643,2898.33103 L65.6919643,2898.4817 C65.6919643,2898.80536 65.6808037,2899.04531 65.6584821,2899.20156 C65.6249998,2899.4471 65.5412953,2899.67031 65.4073661,2899.87121 C65.1060253,2900.31764 64.6596012,2900.54085 64.0680804,2900.54085 C63.4877203,2900.54085 63.0357159,2900.3288 62.7120536,2899.90469 C62.4776774,2899.60335 62.3604911,2899.12344 62.3604911,2898.46496 L62.3604911,2896.30536 C62.3604911,2895.64687 62.4720971,2895.16697 62.6953125,2894.86563 C63.0189748,2894.44152 63.4653989,2894.22946 64.0345982,2894.22946 C64.6037975,2894.22946 65.039061,2894.44152 65.3404018,2894.86563 C65.574778,2895.17813 65.6919643,2895.65803 65.6919643,2896.30536 L65.6919643,2897.57768 L63.4654018,2897.57768 L63.4654018,2898.66585 C63.4654018,2899.23505 63.655132,2899.51964 64.0345982,2899.51964 C64.3024567,2899.51964 64.4698657,2899.37456 64.5368304,2899.08438 C64.5368304,2899.07321 64.5396205,2899.03415 64.5452009,2898.96719 C64.5507813,2898.90022 64.5535714,2898.80815 64.5535714,2898.69096 L64.5535714,2898.33103 L65.6919643,2898.33103 Z M58.1417411,2884.53638 L58.1417411,2887.14799 C58.1417411,2887.71719 57.9631714,2888.00179 57.6060268,2888.00179 C57.2488821,2888.00179 57.0703125,2887.71719 57.0703125,2887.14799 L57.0703125,2884.53638 C57.0703125,2883.95602 57.2488821,2883.66585 57.6060268,2883.66585 C57.9631714,2883.66585 58.1417411,2883.95602 58.1417411,2884.53638 L58.1417411,2884.53638 Z M67.0647321,2896.47277 C67.0647321,2894.49731 66.9587064,2893.04643 66.7466518,2892.12009 C66.6350441,2891.62902 66.3950911,2891.21886 66.0267857,2890.88962 C65.6584803,2890.56038 65.2343774,2890.36786 64.7544643,2890.31205 C63.2365996,2890.14464 60.9375154,2890.06094 57.8571429,2890.06094 C54.7879311,2890.06094 52.4944272,2890.14464 50.9765625,2890.31205 C50.4854886,2890.36786 50.0585956,2890.56038 49.6958705,2890.88962 C49.3331455,2891.21886 49.0959827,2891.62902 48.984375,2892.12009 C48.7611596,2893.09108 48.6495536,2894.54195 48.6495536,2896.47277 C48.6495536,2898.43706 48.7611596,2899.88794 48.984375,2900.82545 C49.0959827,2901.30536 49.3331455,2901.71272 49.6958705,2902.04754 C50.0585956,2902.38237 50.4799083,2902.57768 50.9598214,2902.63348 C52.4888469,2902.80089 54.7879311,2902.8846 57.8571429,2902.8846 C60.9263546,2902.8846 63.2254388,2902.80089 64.7544643,2902.63348 C65.2343774,2902.57768 65.6556902,2902.38237 66.0184152,2902.04754 C66.3811402,2901.71272 66.618303,2901.30536 66.7299107,2900.82545 C66.9531261,2899.88794 67.0647321,2898.43706 67.0647321,2896.47277 L67.0647321,2896.47277 Z M54.4252232,2885.57433 L55.9319196,2880.61897 L54.6763393,2880.61897 L53.8225446,2883.88348 L52.9352679,2880.61897 L51.6294643,2880.61897 C51.7187504,2880.87567 51.8526777,2881.26071 52.03125,2881.77411 C52.2098223,2882.2875 52.3381693,2882.67254 52.4162946,2882.92924 C52.8069216,2884.0788 53.0636155,2884.96049 53.1863839,2885.57433 L53.1863839,2888.93929 L54.4252232,2888.93929 L54.4252232,2885.57433 Z M59.2633929,2886.93036 L59.2633929,2884.75402 C59.2633929,2884.10669 59.1462065,2883.62121 58.9118304,2883.29754 C58.588168,2882.87344 58.1529045,2882.66138 57.6060268,2882.66138 C57.0368275,2882.66138 56.601564,2882.87344 56.3002232,2883.29754 C56.065847,2883.62121 55.9486607,2884.10669 55.9486607,2884.75402 L55.9486607,2886.93036 C55.9486607,2887.57768 56.065847,2888.06317 56.3002232,2888.38683 C56.601564,2888.81094 57.0368275,2889.02299 57.6060268,2889.02299 C58.1529045,2889.02299 58.588168,2888.81094 58.9118304,2888.38683 C59.1462065,2888.08549 59.2633929,2887.6 59.2633929,2886.93036 L59.2633929,2886.93036 Z M62.2935268,2888.93929 L63.4151786,2888.93929 L63.4151786,2882.74509 L62.2935268,2882.74509 L62.2935268,2887.48281 C62.0479898,2887.8288 61.8136172,2888.00179 61.5904018,2888.00179 C61.4229902,2888.00179 61.3337054,2887.9125 61.3225446,2887.73393 C61.3113839,2887.71161 61.3058036,2887.56652 61.3058036,2887.29866 L61.3058036,2882.74509 L60.1841518,2882.74509 L60.1841518,2887.65022 C60.1841518,2888.06317 60.2176336,2888.37009 60.2845982,2888.57098 C60.4073667,2888.87232 60.6473196,2889.02299 61.0044643,2889.02299 C61.406252,2889.02299 61.8359352,2888.77188 62.2935268,2888.26964 L62.2935268,2888.93929 Z M70.7142857,2883.85 L70.7142857,2899.92143 C70.7142857,2901.24956 70.2427503,2902.38515 69.2996652,2903.32824 C68.3565801,2904.27132 67.2209888,2904.74286 65.8928571,2904.74286 L49.8214286,2904.74286 C48.4932969,2904.74286 47.3577056,2904.27132 46.4146205,2903.32824 C45.4715355,2902.38515 45,2901.24956 45,2899.92143 L45,2883.85 C45,2882.52187 45.4715355,2881.38628 46.4146205,2880.44319 C47.3577056,2879.50011 48.4932969,2879.02857 49.8214286,2879.02857 L65.8928571,2879.02857 C67.2209888,2879.02857 68.3565801,2879.50011 69.2996652,2880.44319 C70.2427503,2881.38628 70.7142857,2882.52187 70.7142857,2883.85 L70.7142857,2883.85 Z" id="youtube" sketch:type="MSShapeGroup"></path>
        </g>
    </g>
</svg>