<svg xmlns="http://www.w3.org/2000/svg" xmlns:xlink="http://www.w3.org/1999/xlink" version="1.1" x="0px" y="0px" viewBox="0 0 79.9 166.5" enable-background="new 0 0 79.9 166.5" xml:space="preserve"><path fill="#367AB3" d="M38.9 7.5c-10.5 0.1-18.8 8.7-18.7 19.2c0.1 10.5 8.7 18.8 19.2 18.7c10.5-0.1 18.8-8.7 18.7-19.2 C57.9 15.7 49.3 7.4 38.9 7.5L38.9 7.5z M38.8 38l-0.1 0c-1.6 0-2.7-1.2-2.7-2.8c0-1.6 1.2-2.7 2.8-2.7l0.1 0c1.7 0 2.8 1.2 2.7 2.9 C41.6 36.9 40.4 38 38.8 38L38.8 38z M45.6 24.5c-0.4 0.5-1.2 1.2-2.3 2l-1.2 0.8c-0.6 0.5-1 1-1.2 1.4c-0.1 0.4-0.2 0.5-0.2 1.2 l0 0.2h-4.4l0-0.4c0.1-1.5 0.1-2.4 0.7-3.2c1-1.2 3.2-2.6 3.3-2.6c0.3-0.2 0.6-0.5 0.8-0.8c0.5-0.6 0.7-1.1 0.7-1.6 c0-0.7-0.2-1.3-0.6-1.9c-0.4-0.5-1.1-0.8-2.2-0.8c-1.1 0-1.8 0.3-2.2 1c-0.4 0.7-0.7 1.4-0.7 2.2v0.2h-4.5l0-0.2 c0.1-2.8 1.1-4.8 3-6c1.2-0.7 2.6-1.1 4.3-1.1c2.2 0 4.1 0.5 5.5 1.6c1.5 1.1 2.2 2.7 2.2 4.8C46.7 22.4 46.3 23.5 45.6 24.5 L45.6 24.5z M45.6 24.5"/><path fill="#231F20" d="M38.9 123c-10.5 0.1-18.8 8.7-18.7 19.2c0.1 10.5 8.7 18.8 19.2 18.7c10.5-0.1 18.8-8.7 18.7-19.2 C57.9 131.2 49.3 122.9 38.9 123L38.9 123z M38.8 153.5l-0.1 0c-1.6 0-2.7-1.2-2.7-2.8c0-1.6 1.2-2.7 2.8-2.7l0.1 0 c1.7 0 2.8 1.2 2.7 2.9C41.6 152.4 40.4 153.5 38.8 153.5L38.8 153.5z M45.6 140c-0.4 0.5-1.2 1.2-2.3 2l-1.2 0.8 c-0.6 0.5-1 1-1.2 1.4c-0.1 0.4-0.2 0.5-0.2 1.2l0 0.2h-4.4l0-0.4c0.1-1.5 0.1-2.4 0.7-3.2c1-1.2 3.2-2.6 3.3-2.6 c0.3-0.2 0.6-0.5 0.8-0.8c0.5-0.6 0.7-1.1 0.7-1.6c0-0.7-0.2-1.3-0.6-1.9c-0.4-0.5-1.1-0.8-2.2-0.8c-1.1 0-1.8 0.3-2.2 1 c-0.4 0.7-0.7 1.4-0.7 2.2v0.2h-4.5l0-0.2c0.1-2.8 1.1-4.8 3-6c1.2-0.7 2.6-1.1 4.3-1.1c2.2 0 4.1 0.5 5.5 1.6 c1.5 1.1 2.2 2.7 2.2 4.8C46.7 137.9 46.3 139 45.6 140L45.6 140z M45.6 140"/></svg>